<?xml version="1.0" encoding="UTF-8"?>
<svg id="Camada_16" data-name="Camada 16" xmlns="http://www.w3.org/2000/svg" viewBox="0 0 537.14 518">
  <defs>
    <style>
      .cls-1 {
        fill: #ffda00;
        stroke-width: 0px;
      }
    </style>
  </defs>
  <path class="cls-1" d="M346.72,111.86c-8.67-7.73-17.86-15.72-29.17-18.35-15.27-3.6-31.16,3.38-43.84,12.64-23.11,16.88-40.03,42.04-46.9,69.82-1.48,5.95-2.51,12.06-3.38,18.18,16.83-3.94,32.55-14.26,43.5-27.88-4.97,24.99-20.69,47.63-42.36,60.99-1.84,1.14-4.2,2.46-6.81,3.71-.32,1.52-.69,3.02-1.09,4.52-1.84,6.83-4.3,13.45-7.86,19.66-10.6,18.61-28.5,32.25-50.54,32.25-1.71,0-3.43-.09-5.1-.26,3.55,5.55,9.7,12.96,17.54,14.31,6.08,1.03,12.36-1.78,18.61-8.4,1.31-1.37,2.55-3.3,3.88-5.35,5.29-8.22,12.53-19.51,33.09-9.83l-.9,1.95c-18.89-8.89-24.99.64-30.39,9.04-1.39,2.14-2.68,4.15-4.11,5.68-5.83,6.17-11.76,9.27-17.67,9.27-.96,0-1.93-.09-2.89-.26-9.44-1.63-16.38-10.82-19.92-16.75-9.94-1.46-18.97-5.65-26.32-11.82-4.82,3.64-11.63,7.54-18.67,7.54-.9,0-1.82-.06-2.72-.21-6.87-1.05-12.49-6.1-16.66-15.06-.88-1.88-1.48-4.22-2.1-6.68-2.46-9.68-5.29-20.62-25.98-18.16l-.26-2.12c22.57-2.7,25.89,10.28,28.31,19.77.6,2.36,1.18,4.58,1.97,6.3,3.85,8.25,8.91,12.91,15.03,13.83,7.02,1.09,14.28-2.89,19.4-6.68-10.73-9.7-17.48-23.79-17.48-39.43,0-12.08,2.96-22.4,8.25-31.93-.84-1.8-1.56-3.51-2.12-4.97-9.17-23.75-7.97-51.31,3.21-74.18.49,19,7.9,38.33,20.79,51.96,17.07-17.26,36.49-32.15,55.81-46.92,8.25-6.34,16.53-12.68,25.38-18.14,36.69-22.74,81.62-29.77,117.55-53.69,2.44,18.93,6.77,37.61,12.91,55.68Z"/>
  <path class="cls-1" d="M491.22,243.51c-2.06.24-3.94.36-5.7.36-17.48,0-20.41-11.52-22.62-20.13-.6-2.38-1.18-4.6-1.97-6.3-3.85-8.27-8.91-12.91-15.01-13.86-7.02-1.05-14.26,2.89-19.4,6.7,10.73,9.7,17.48,23.77,17.48,39.43,0,12.08-2.96,22.4-8.25,31.93.84,1.8,1.56,3.51,2.12,4.97,9.17,23.75,7.97,51.31-3.21,74.18-.49-19-7.9-38.33-20.79-51.96-17.07,17.26-36.49,32.15-55.81,46.92-8.25,6.34-16.53,12.68-25.38,18.14-36.69,22.74-81.62,29.77-117.55,53.69-2.44-18.93-6.77-37.61-12.91-55.68,8.67,7.73,17.86,15.72,29.17,18.35,15.27,3.6,31.16-3.38,43.84-12.64,23.11-16.88,40.03-42.04,46.9-69.82,1.48-5.95,2.51-12.06,3.38-18.18-16.83,3.94-32.55,14.26-43.5,27.88,4.97-24.99,20.69-47.63,42.36-60.99,1.84-1.14,4.2-2.46,6.81-3.71.32-1.52.69-3.02,1.09-4.52,1.84-6.83,4.3-13.45,7.86-19.66,10.6-18.61,28.5-32.25,50.54-32.25,1.71,0,3.43.09,5.1.26-3.58-5.55-9.7-12.98-17.54-14.31-6.1-1.07-12.38,1.78-18.63,8.37-1.31,1.37-2.55,3.32-3.85,5.38-3.85,5.98-8.72,13.53-18.97,13.53-3.85,0-8.5-1.07-14.13-3.73l.92-1.93c18.87,8.87,24.97-.64,30.37-9.04,1.39-2.14,2.68-4.18,4.11-5.68,6.79-7.17,13.71-10.22,20.56-9.04,9.47,1.63,16.38,10.84,19.94,16.77,9.92,1.46,18.95,5.65,26.3,11.82,5.44-4.13,13.41-8.57,21.39-7.35,6.87,1.05,12.49,6.12,16.66,15.06.88,1.88,1.48,4.22,2.1,6.68,2.46,9.68,5.27,20.62,25.98,18.18l.26,2.12Z"/>
</svg>