<?xml version="1.0" encoding="UTF-8"?>
<svg id="Camada_18" data-name="Camada 18" xmlns="http://www.w3.org/2000/svg" viewBox="0 0 537.14 518">
  <defs>
    <style>
      .cls-1 {
        fill: #0992c7;
        stroke-width: 0px;
      }
    </style>
  </defs>
  <path class="cls-1" d="M353.16,118.11c-9.4-8.38-19.35-17.03-31.6-19.89-16.55-3.9-33.76,3.67-47.5,13.69-25.04,18.29-43.37,45.55-50.82,75.65-1.6,6.45-2.71,13.06-3.67,19.7,18.24-4.27,35.27-15.45,47.13-30.21-5.38,27.08-22.42,51.61-45.9,66.09-2,1.23-4.55,2.67-7.38,4.01-.35,1.65-.74,3.27-1.18,4.9-2,7.4-4.66,14.57-8.52,21.3-11.49,20.16-30.89,34.95-54.76,34.95-1.86,0-3.71-.09-5.52-.28,3.85,6.01,10.51,14.04,19,15.5,6.59,1.11,13.39-1.93,20.16-9.1,1.42-1.49,2.76-3.57,4.2-5.8,5.73-8.91,13.57-21.14,35.85-10.65l-.97,2.11c-20.47-9.63-27.08.7-32.93,9.79-1.51,2.32-2.9,4.5-4.46,6.15-6.31,6.68-12.74,10.05-19.14,10.05-1.04,0-2.09-.09-3.13-.28-10.23-1.76-17.75-11.72-21.58-18.15-10.77-1.58-20.56-6.13-28.52-12.81-5.22,3.94-12.6,8.17-20.23,8.17-.97,0-1.97-.07-2.95-.23-7.45-1.14-13.53-6.61-18.05-16.31-.95-2.04-1.6-4.57-2.27-7.24-2.67-10.49-5.73-22.35-28.15-19.68l-.28-2.3c24.46-2.92,28.05,11.14,30.68,21.42.65,2.55,1.28,4.97,2.13,6.82,4.18,8.93,9.65,13.99,16.29,14.99,7.61,1.18,15.48-3.13,21.02-7.24-11.63-10.51-18.94-25.78-18.94-42.72,0-13.09,3.2-24.27,8.93-34.6-.9-1.95-1.69-3.81-2.3-5.38-9.93-25.73-8.63-55.6,3.48-80.38.53,20.58,8.56,41.54,22.53,56.29,18.49-18.7,39.54-34.83,60.47-50.84,8.93-6.87,17.91-13.74,27.5-19.65,39.75-24.64,88.43-32.25,127.37-58.17,2.65,20.51,7.33,40.75,13.99,60.33Z"/>
  <path class="cls-1" d="M509.74,260.75c-2.23.26-4.27.39-6.17.39-18.94,0-22.11-12.48-24.5-21.81-.65-2.58-1.28-4.99-2.13-6.82-4.18-8.96-9.65-13.99-16.27-15.01-7.61-1.14-15.45,3.13-21.02,7.26,11.63,10.51,18.94,25.76,18.94,42.72,0,13.09-3.2,24.27-8.93,34.6.91,1.95,1.69,3.81,2.3,5.38,9.93,25.73,8.63,55.6-3.48,80.38-.53-20.58-8.56-41.54-22.53-56.29-18.49,18.7-39.54,34.83-60.47,50.84-8.93,6.87-17.91,13.74-27.5,19.65-39.75,24.64-88.43,32.25-127.37,58.17-2.65-20.51-7.33-40.75-13.99-60.33,9.4,8.38,19.35,17.03,31.6,19.89,16.55,3.9,33.76-3.67,47.5-13.69,25.04-18.29,43.37-45.55,50.82-75.65,1.6-6.45,2.71-13.06,3.67-19.7-18.24,4.27-35.27,15.45-47.13,30.21,5.38-27.08,22.42-51.61,45.9-66.09,2-1.23,4.55-2.67,7.38-4.01.35-1.65.74-3.27,1.18-4.9,2-7.4,4.66-14.57,8.52-21.3,11.49-20.16,30.89-34.95,54.76-34.95,1.86,0,3.71.09,5.52.28-3.88-6.01-10.51-14.06-19-15.5-6.61-1.16-13.41,1.93-20.19,9.07-1.42,1.49-2.76,3.6-4.18,5.82-4.18,6.47-9.44,14.67-20.56,14.67-4.18,0-9.21-1.16-15.32-4.04l1-2.09c20.44,9.61,27.06-.7,32.9-9.79,1.51-2.32,2.9-4.52,4.46-6.15,7.36-7.77,14.85-11.07,22.28-9.79,10.26,1.76,17.75,11.74,21.6,18.17,10.74,1.58,20.54,6.13,28.5,12.81,5.89-4.48,14.53-9.28,23.18-7.96,7.45,1.14,13.53,6.64,18.05,16.31.95,2.04,1.6,4.57,2.27,7.24,2.67,10.49,5.71,22.35,28.15,19.7l.28,2.3Z"/>
</svg>