<?xml version="1.0" encoding="UTF-8"?>
<svg id="Camada_17" data-name="Camada 17" xmlns="http://www.w3.org/2000/svg" viewBox="0 0 537.14 518">
  <defs>
    <style>
      .cls-1 {
        fill: #f8a913;
        stroke-width: 0px;
      }
    </style>
  </defs>
  <path class="cls-1" d="M349.4,110.32c-9.93-8.85-20.45-18-33.39-21.01-17.48-4.12-35.68,3.87-50.19,14.47-26.46,19.32-45.83,48.13-53.7,79.93-1.69,6.82-2.87,13.8-3.87,20.82,19.27-4.51,37.27-16.33,49.8-31.92-5.69,28.61-23.69,54.53-48.5,69.83-2.11,1.3-4.81,2.82-7.8,4.24-.37,1.74-.78,3.46-1.25,5.17-2.11,7.82-4.93,15.4-9,22.51-12.14,21.31-32.63,36.93-57.86,36.93-1.96,0-3.92-.1-5.84-.29,4.07,6.35,11.11,14.83,20.08,16.38,6.96,1.18,14.15-2.04,21.31-9.61,1.5-1.57,2.92-3.78,4.44-6.13,6.06-9.42,14.34-22.34,37.88-11.25l-1.03,2.23c-21.63-10.18-28.61.74-34.79,10.35-1.59,2.45-3.06,4.76-4.71,6.5-6.67,7.06-13.46,10.62-20.23,10.62-1.1,0-2.21-.1-3.31-.29-10.81-1.86-18.76-12.38-22.8-19.17-11.38-1.67-21.72-6.47-30.13-13.53-5.52,4.17-13.31,8.63-21.38,8.63-1.03,0-2.08-.07-3.11-.25-7.87-1.2-14.29-6.99-19.08-17.24-1.01-2.16-1.69-4.83-2.4-7.65-2.82-11.08-6.06-23.61-29.74-20.79l-.29-2.43c25.84-3.09,29.64,11.77,32.41,22.63.69,2.7,1.35,5.25,2.26,7.21,4.41,9.44,10.2,14.79,17.21,15.84,8.04,1.25,16.35-3.31,22.21-7.65-12.28-11.11-20.01-27.24-20.01-45.14,0-13.83,3.38-25.65,9.44-36.56-.96-2.06-1.79-4.02-2.43-5.69-10.49-27.19-9.12-58.75,3.68-84.93.56,21.75,9.05,43.89,23.81,59.48,19.54-19.76,41.78-36.8,63.9-53.72,9.44-7.26,18.93-14.52,29.05-20.77,42-26.04,93.44-34.08,134.58-61.47,2.8,21.67,7.75,43.06,14.79,63.75Z"/>
  <path class="cls-1" d="M514.84,261.05c-2.35.27-4.51.42-6.52.42-20.01,0-23.37-13.19-25.89-23.05-.69-2.72-1.35-5.27-2.26-7.21-4.41-9.46-10.2-14.79-17.19-15.86-8.04-1.2-16.33,3.31-22.21,7.67,12.28,11.11,20.01,27.22,20.01,45.14,0,13.83-3.38,25.65-9.44,36.56.96,2.06,1.79,4.02,2.43,5.69,10.49,27.19,9.12,58.75-3.68,84.93-.56-21.75-9.05-43.89-23.81-59.48-19.54,19.76-41.78,36.8-63.9,53.72-9.44,7.26-18.93,14.52-29.05,20.77-42,26.04-93.44,34.08-134.58,61.47-2.8-21.67-7.75-43.06-14.78-63.75,9.93,8.85,20.45,18,33.39,21.01,17.48,4.12,35.68-3.87,50.19-14.47,26.46-19.32,45.83-48.13,53.7-79.93,1.69-6.82,2.87-13.8,3.87-20.82-19.27,4.51-37.27,16.33-49.8,31.92,5.69-28.61,23.69-54.53,48.5-69.83,2.11-1.3,4.81-2.82,7.8-4.24.37-1.74.78-3.46,1.25-5.17,2.11-7.82,4.93-15.4,9-22.51,12.14-21.31,32.63-36.93,57.86-36.93,1.96,0,3.92.1,5.84.29-4.09-6.35-11.11-14.86-20.08-16.38-6.99-1.23-14.17,2.04-21.33,9.59-1.5,1.57-2.92,3.8-4.41,6.15-4.41,6.84-9.98,15.5-21.72,15.5-4.41,0-9.73-1.23-16.18-4.27l1.05-2.21c21.6,10.15,28.59-.74,34.77-10.35,1.59-2.45,3.06-4.78,4.71-6.5,7.77-8.21,15.69-11.7,23.54-10.35,10.84,1.86,18.76,12.41,22.83,19.2,11.35,1.67,21.7,6.47,30.11,13.53,6.23-4.73,15.35-9.81,24.49-8.41,7.87,1.2,14.29,7.01,19.08,17.24,1.01,2.16,1.69,4.83,2.4,7.65,2.82,11.08,6.03,23.61,29.74,20.82l.29,2.43Z"/>
</svg>