<?xml version="1.0" encoding="UTF-8"?>
<svg id="Camada_10" data-name="Camada 10" xmlns="http://www.w3.org/2000/svg" viewBox="0 0 537.14 518">
  <defs>
    <style>
      .cls-1 {
        fill: #f8a913;
        stroke-width: 0px;
      }
    </style>
  </defs>
  <path class="cls-1" d="M142.21,271.58l.15,1.22c11.86-1.41,13.48,4.86,14.89,10.41.36,1.41.7,2.75,1.2,3.83,2.39,5.13,5.61,8.03,9.55,8.63.52.09,1.04.12,1.56.12,4.04,0,7.94-2.23,10.7-4.32,4.21,3.54,9.39,5.94,15.09,6.78,2.03,3.4,6,8.67,11.42,9.6.55.1,1.1.15,1.66.15,3.39,0,6.79-1.78,10.13-5.31.82-.87,1.56-2.03,2.36-3.25,3.09-4.81,6.59-10.27,17.42-5.18l.52-1.12c-11.78-5.55-15.93.92-18.96,5.63-.76,1.18-1.47,2.28-2.22,3.07-3.58,3.79-7.18,5.4-10.67,4.81-4.49-.77-8.02-5.02-10.05-8.2.96.1,1.94.15,2.92.15,12.63,0,22.89-7.82,28.97-18.49,2.04-3.56,3.45-7.35,4.5-11.27.23-.86.44-1.72.63-2.59,1.5-.71,2.85-1.47,3.9-2.12,12.42-7.66,21.43-20.63,24.28-34.96-6.27,7.81-15.28,13.72-24.93,15.98.5-3.51,1.09-7.01,1.94-10.42,3.94-15.92,13.64-30.34,26.88-40.01,7.27-5.3,16.37-9.3,25.13-7.24,6.48,1.51,11.75,6.09,16.72,10.52-3.52-10.36-6-21.06-7.4-31.91-20.6,13.71-46.35,17.74-67.37,30.77-5.07,3.13-9.82,6.76-14.54,10.4-11.07,8.47-22.2,17-31.99,26.89-7.39-7.81-11.64-18.89-11.92-29.78-6.41,13.11-7.09,28.91-1.84,42.52.32.83.74,1.82,1.22,2.85-3.03,5.46-4.73,11.38-4.73,18.3,0,8.96,3.87,17.04,10.02,22.6-2.93,2.17-7.09,4.46-11.12,3.83-3.51-.53-6.41-3.2-8.62-7.93-.45-.98-.79-2.26-1.13-3.61-1.39-5.44-3.29-12.88-16.23-11.33Z"/>
  <path class="cls-1" d="M375.64,261.8c-.36-1.41-.7-2.75-1.2-3.83-2.39-5.12-5.61-8.03-9.55-8.63-4.58-.7-9.14,1.84-12.26,4.21-4.21-3.53-9.39-5.94-15.07-6.78-2.04-3.4-6-8.68-11.43-9.61-3.93-.68-7.89,1.07-11.78,5.18-.82.86-1.56,2.03-2.36,3.25-3.09,4.81-6.59,10.26-17.4,5.18l-.53,1.1c3.23,1.52,5.89,2.14,8.1,2.14,5.88,0,8.67-4.33,10.88-7.76.75-1.18,1.46-2.3,2.21-3.08,3.58-3.78,7.18-5.41,10.68-4.8,4.49.76,8,5.02,10.05,8.2-.96-.1-1.94-.15-2.92-.15-12.63,0-22.89,7.82-28.97,18.49-2.04,3.56-3.45,7.35-4.5,11.27-.23.86-.44,1.72-.63,2.59-1.5.71-2.85,1.47-3.9,2.12-12.42,7.66-21.43,20.63-24.28,34.96,6.27-7.81,15.28-13.72,24.93-15.98-.5,3.51-1.09,7.01-1.94,10.42-3.94,15.92-13.64,30.34-26.88,40.01-7.27,5.3-16.37,9.3-25.13,7.24-6.48-1.51-11.75-6.09-16.72-10.52,3.52,10.36,6,21.06,7.4,31.91,20.6-13.71,46.35-17.74,67.37-30.77,5.07-3.13,9.82-6.76,14.54-10.4,11.07-8.47,22.2-17,31.99-26.89,7.39,7.81,11.64,18.89,11.92,29.78,6.41-13.11,7.09-28.91,1.84-42.52-.32-.83-.74-1.82-1.22-2.85,3.03-5.46,4.73-11.38,4.73-18.3,0-8.97-3.87-17.04-10.02-22.6,2.95-2.18,7.09-4.44,11.12-3.84,3.5.54,6.4,3.2,8.6,7.94.45.97.79,2.25,1.13,3.61,1.26,4.93,2.95,11.54,12.96,11.54,1.01,0,2.09-.07,3.27-.21l-.15-1.22c-11.87,1.4-13.48-4.87-14.89-10.42Z"/>
  <path class="cls-1" d="M71.17,60.81h-16.42v16.42c9.07,0,16.42-7.35,16.42-16.42Z"/>
  <path class="cls-1" d="M478.14,77.23v-16.42h-16.42c0,9.07,7.35,16.42,16.42,16.42Z"/>
  <path class="cls-1" d="M478.14,467.78c-9.07,0-16.42,7.35-16.42,16.42h16.42v-16.42Z"/>
  <path class="cls-1" d="M54.75,467.78v16.42h16.42c0-9.07-7.35-16.42-16.42-16.42Z"/>
  <path class="cls-1" d="M408.33,145.67c-5.45,0-9.86,4.41-9.86,9.86s4.41,9.86,9.86,9.86,9.86-4.41,9.86-9.86-4.41-9.86-9.86-9.86Z"/>
  <circle class="cls-1" cx="135.57" cy="405.34" r="17.92" transform="translate(-290.79 375.48) rotate(-67.5)"/>
  <circle class="cls-1" cx="170.21" cy="123.62" r="11.28" transform="translate(-17.6 28.86) rotate(-9.22)"/>
  <circle class="cls-1" cx="380.59" cy="405.34" r="14.43" transform="translate(-82.95 98.29) rotate(-13.28)"/>
</svg>