<?xml version="1.0" encoding="UTF-8"?>
<svg id="Camada_15" data-name="Camada 15" xmlns="http://www.w3.org/2000/svg" viewBox="0 0 537.14 518">
  <defs>
    <style>
      .cls-1 {
        fill: #ffda00;
        stroke-width: 0px;
      }
    </style>
  </defs>
  <path class="cls-1" d="M119.44,269.59c3.88,4.05,4.25,8.75,2.42,13.76-.49,1.35-.6,2.44-.12,3.84,1.67,4.85,1.54,9.72-.29,14.53-.11.28-.14.63-.75.7-.5-3.95-1.76-7.63-4.52-10.62-.83.08-1.13.71-1.57,1.11-5.07,4.65-10.5,8.85-16.12,12.79-3.02,2.12-6.4,3.58-9.82,4.92-6,2.36-12.2,4.26-17.96,7.95-.77-4.11-1.5-7.97-2.75-11.92,1.03.07,1.47.67,1.97,1.08,3.9,3.19,8.02,3.28,12.22.79,6.72-3.99,10.94-9.88,12.89-17.42.29-1.14.71-2.29.43-3.7-3.24.47-5.61,2.44-8.03,4.3-.96.03-.79-.56-.63-1.15,1.43-4.73,4.48-8.22,8.53-10.86,1.22-.79,1.94-1.65,2.34-3.07.82-2.88,2.36-5.39,4.6-7.44,2.19-2.01,4.76-3.15,7.73-3.41.5-.04,1.17.23,1.38-.56-.23-.47,0-.5.37-.38.5.76,1.16,1.2,2.09,1.4,1.56.32,2.97,1.04,4.21,2.07.9-.04,1.23.54,1.4,1.29Z"/>
  <path class="cls-1" d="M86.32,123.17c1.44-5.12,4.41-9.15,8.87-12.02,1.26-.81,2.1-1.66,2.52-3.2.92-3.39,2.85-6.2,5.7-8.32,2.32-1.73,4.91-2.6,7.82-2.39.33-.11.5-.67.99-.36,1.9,1.04,4.22,1.2,5.85,2.81.28.41.87.12,1.15.51-.02.45.31.7.57,1,3.51,4.14,3.92,8.78,2.03,13.69-.49,1.28-.52,2.3-.07,3.61,1.64,4.76,1.55,9.56-.17,14.31-.13.36-.18.79-.81,1.1-.62-4.03-1.74-7.83-4.8-10.9-4.15,3.96-8.56,7.37-12.96,10.81-4.44,3.48-9.25,6.22-14.51,8.24-5.94,2.28-12.05,4.2-17.72,7.83-.89-3.95-1.46-7.7-2.66-11.3-.11-.49.1-.65.56-.55,2.45,2.14,5.05,3.87,8.55,3.5,1.7-.18,3.28-.69,4.72-1.54,7.68-4.53,12.09-11.3,13.59-20.04.06-.38.17-.79-.25-1.25-3.3.75-5.98,2.64-8.38,5.01-.47.1-.7-.05-.58-.56Z"/>
  <path class="cls-1" d="M423.54,460.02c1.54-5.09,4.6-9.03,9.07-11.84,1.09-.68,1.73-1.42,2.08-2.67.87-3.12,2.5-5.84,4.98-7.97,1.97-1.69,4.18-2.88,6.85-2.98.95-.21,1.91-.26,2.87-.35,1.96.81,4.07,1.27,5.78,2.63.57.45,1.02-.13,1.52-.27.47-.25.48,0,.38.35-.7.37-.91.79-.27,1.46,1.34,1.42,2.25,3.08,2.76,4.97.85,3.14.51,6.19-.78,9.12-.46,1.04-.45,1.9-.07,2.94,1.78,4.91,1.79,9.83-.12,14.73-.3.28-.59.29-.88-.02-.63-3.68-1.9-7.05-4.63-9.9-3.84,3.77-8.05,6.94-12.14,10.24-5.28,4.27-11.13,7.42-17.49,9.7-5.18,1.86-10.35,3.75-15.08,6.64-.12.07-.3.03-.61.05-.66-3.66-1.38-7.33-2.48-10.91-.1-.5.11-.66.59-.56,4.68,4.2,9.07,4.98,15.37.5,6.36-4.53,10.04-10.81,11.42-18.46.08-.46.2-.95-.17-1.49-3.33.79-6.06,2.63-8.46,5.04-.92.07-.65-.46-.48-.95Z"/>
  <path class="cls-1" d="M225.11,118.84c-.49-.8-1.28-1.1-2.15-1.32-1.55-.39-2.97-1.05-4.19-2.12-.47-.09-.76-.41-.98-.8-4.08-4.17-4.72-9.03-2.7-14.31.49-1.28.56-2.3.11-3.59-1.7-4.91-1.62-9.83.29-14.69.51-.29.63.18.85.45.65,3.59,1.89,6.9,4.6,9.71,4.03-3.9,8.4-7.24,12.71-10.65,4.68-3.7,9.78-6.58,15.36-8.67,5.82-2.18,11.72-4.16,17.21-7.61.77,4.21,1.56,8.18,2.94,12.46-1.08-.82-1.83-1.36-2.55-1.93-3.46-2.71-7.17-2.91-10.99-.96-5.31,2.7-9.08,6.96-11.71,12.25-1.42,2.86-2.38,5.88-2.63,9.4,3.61-.67,6.21-2.64,8.66-4.91.48-.1.71.06.6.58-1.48,5.23-4.58,9.25-9.15,12.1-1.1.69-1.67,1.49-2.06,2.71-1.72,5.41-4.97,9.38-10.73,10.87-1.04.27-2.25-.31-3.12.66.25.47,0,.48-.35.38Z"/>
  <path class="cls-1" d="M456.28,100.2c.75,1.11,1.6,2.16,2.23,3.33,2.02,3.75,1.97,7.65.37,11.5-.5,1.2-.48,2.17-.07,3.36,1.66,4.82,1.71,9.65-.2,14.44-.55.3-.69-.2-.94-.49-.65-2.99-1.71-5.79-3.57-8.27-.71-.95-1.23-.97-2.06-.15-3.8,3.77-8.13,6.92-12.32,10.23-4.23,3.34-8.87,5.9-13.89,7.84-6,2.32-12.19,4.24-17.96,7.93-.83-3.96-1.46-7.7-2.61-11.29-.08-.48.12-.66.59-.53,2.46,2.15,5.08,3.84,8.59,3.44,1.71-.19,3.29-.72,4.72-1.58,7.74-4.64,12.15-11.52,13.56-20.38.03-.22-.04-.46-.09-.88-3.78.8-6.63,2.99-9.35,5.78-.07-1.37.43-2.36.84-3.35,1.76-4.35,4.6-7.83,8.63-10.24,1.04-.62,1.64-1.35,1.94-2.52.54-2.1,1.51-4.03,2.85-5.75,2.77-3.53,6.26-5.62,10.89-5.38.33-.08.5-.64.96-.32,1.93,1,4.23,1.23,5.88,2.82.27.33.79.09,1.04.47Z"/>
  <path class="cls-1" d="M99.22,245.19c-.33-.22-.68-.41-.99-.66-3.86-3.11-7.94-3.05-12.03-.65-6.57,3.86-10.74,9.62-12.76,16.94-.38,1.36-.74,2.73-.69,4.31,3.61-.8,6.35-2.75,8.81-5.19.21-.2.41-.19.6.03-1.3,5.56-4.5,9.78-9.25,12.8-1.16.74-1.85,1.55-2.2,2.87-.72,2.75-2.16,5.14-4.17,7.13-2.21,2.2-4.84,3.6-8.02,3.76-.77.04-1.74-.08-1.35,1.25l-.07.07c-.96-.94-2.02-1.65-3.39-1.94-1.42-.3-2.58-1.2-3.77-1.98-.45-.17-.71-.52-.89-.94-4.01-4.08-4.36-8.88-2.55-13.98.49-1.37.55-2.5.09-3.88-1.7-5.11-1.5-10.18.63-15.24.69.66.63,1.42.76,2.11.5,2.71,1.55,5.2,3.19,7.42,1.04,1.4,1.13,1.42,2.34.27,4.2-3.95,8.81-7.4,13.37-10.91,3.51-2.7,7.34-4.81,11.43-6.47,6.42-2.61,13.12-4.56,19.24-8.41.82,3.67,1.6,7.13,2.37,10.58.13.61-.17.78-.71.71Z"/>
  <path class="cls-1" d="M112.25,434.18c1.94.93,4.21,1.16,5.81,2.8.23.42.82.16,1.07.55.12.2.2.44.36.61,3.8,4.19,4.25,8.97,2.3,14.07-.5,1.29-.47,2.32-.03,3.62,1.71,5.1,1.54,10.17-.59,15.16-.91-.25-.61-.94-.69-1.42-.47-2.89-1.53-5.53-3.26-7.9-1.12-1.53-1.17-1.56-2.51-.27-3.99,3.83-8.45,7.09-12.78,10.49-4.45,3.49-9.44,5.94-14.71,7.91-5.46,2.04-10.98,3.95-15.99,7-.11.07-.31,0-.59,0-.67-3.64-1.36-7.32-2.5-10.89-.13-.5.11-.65.56-.58,4.73,4.27,9.19,5.1,15.7.35,5.99-4.36,9.56-10.34,11.02-17.59.12-.61.28-1.24,0-2.14-3.43.74-6.14,2.64-8.56,5.06-.46.12-.68-.03-.57-.53,1.45-5.24,4.5-9.33,9.06-12.2,1.26-.79,1.92-1.69,2.32-3.08,1.01-3.47,2.95-6.36,5.92-8.48,1.71-1.22,3.58-2.1,5.74-2.16.96-.2,1.94-.28,2.91-.38Z"/>
  <path class="cls-1" d="M99.8,77.21c-4.96-4.59-9.43-5.06-15.73-.59-6.14,4.35-10.74,12.01-11.31,19.49,2.31.16,3.71-.58,9.13-4.87.44.53.11,1.03-.05,1.52-1.66,4.87-4.62,8.73-8.99,11.45-1.08.67-1.78,1.39-2.1,2.68-.57,2.36-1.74,4.46-3.33,6.3-2.7,3.12-6.02,4.94-10.26,4.78-.27.21-.42.72-.92.42-.62-.7-1.53-.71-2.33-.98-1.27-.42-2.47-.97-3.49-1.85-.76-.18-1.14-.79-1.54-1.38-3.85-4.08-4.17-8.8-2.35-13.8.5-1.37.52-2.5.06-3.88-1.71-5.12-1.44-10.2.67-15.36.66.75.61,1.55.75,2.28.5,2.72,1.57,5.19,3.21,7.4,1.05,1.41,1.09,1.43,2.32.26,3.88-3.7,8.18-6.89,12.4-10.2,4.18-3.29,8.76-5.82,13.72-7.72,5.96-2.29,12.04-4.28,17.55-7.6.11-.07.31,0,.55,0,.61,3.75,1.35,7.49,2.56,11.12.16.5-.07.62-.52.53Z"/>
  <path class="cls-1" d="M216.31,250.88c.64,3.67,1.89,7.05,4.62,9.91,3.92-3.81,8.17-7.04,12.34-10.38,5.1-4.09,10.72-7.15,16.85-9.37,5.32-1.93,10.66-3.83,15.52-6.83.12-.07.3-.03.61-.06.7,3.65,1.39,7.33,2.49,10.91.1.5-.12.66-.59.56-2.18-1.79-4.4-3.45-7.43-3.45-2.07,0-3.97.55-5.71,1.57-7.81,4.58-12.22,11.48-13.69,20.35-.05.3.04.62.08,1.02,3.48-.8,6.2-2.65,8.6-5.07.92-.08.64.47.49.95-1.58,5.16-4.68,9.16-9.27,11.96-1.05.63-1.55,1.41-1.87,2.55-.94,3.28-2.66,6.12-5.35,8.28-1.89,1.52-3.99,2.61-6.49,2.68-.95.18-1.92.25-2.89.34-1.95-.81-4.06-1.26-5.77-2.61-.57-.45-1.02.13-1.52.27-.47.25-.48,0-.39-.35.97-.49.68-.98.11-1.64-2.26-2.59-3.23-5.64-3.02-9.07.11-1.68.45-3.34,1.2-4.85.51-1.02.45-1.9.08-2.94-1.77-4.92-1.79-9.84.13-14.73.3-.29.59-.29.88.02Z"/>
  <path class="cls-1" d="M386.18,283c-3.95-3.99-4.33-8.73-2.65-13.75.51-1.52.64-2.77.14-4.31-1.65-5.11-1.41-10.18.9-15.57.28,1.35.45,2.25.65,3.16.57,2.61,1.67,4.97,3.25,7.13.69.94,1.23,1,2.08.17,3.78-3.69,8.03-6.81,12.17-10.08,4.43-3.5,9.29-6.17,14.55-8.17,5.88-2.23,11.87-4.21,17.49-7.72.79,4.18,1.57,8.11,2.85,12.1-1.22-.4-1.85-1.16-2.6-1.72-3.17-2.36-6.55-2.7-10.16-1.15-2.15.93-4.04,2.26-5.77,3.81-5.2,4.67-8.2,10.51-9.27,17.38-.03.21.07.45.13.79,3.7-.77,6.5-2.94,9.09-5.47.45.65.11,1.14-.05,1.64-1.63,4.97-4.65,8.89-9.12,11.61-1.05.64-1.63,1.36-1.94,2.52-.87,3.24-2.59,5.99-5.16,8.18-1.86,1.58-3.94,2.7-6.45,2.85-.98.14-1.95.28-2.82.81-.37-.55-.89-.81-1.54-.95-1.78-.4-3.36-1.23-4.82-2.32-.44-.19-.79-.49-.95-.96Z"/>
  <path class="cls-1" d="M393.43,455.71c-.24-.2-.46-.52-.73-.57-2.21-.41-4.04-1.68-6.02-2.61-.39-.25-.1-.87-.59-1.06-4.01-4.1-4.23-8.9-2.41-13.97.46-1.28.54-2.34.08-3.63-1.64-4.68-1.49-9.4.07-14.09.15-.45.28-.92.87-1.36.62,4.06,1.77,7.81,4.6,10.78.81-.03,1.12-.66,1.57-1.08,4.91-4.59,10.25-8.64,15.71-12.53,3.73-2.66,7.96-4.35,12.22-5.96,5.37-2.03,10.81-3.89,16-7.2.6,3.71,1.38,7.15,2.25,10.57.22.54.42,1.07-.52,1.01-.07-.04-.15-.06-.21-.12-4.79-4.08-8.98-4.33-14.76-.28-6.75,4.72-10.54,11.35-11.74,19.48-.02.13.1.28.24.64,3.47-.88,6.32-2.74,8.73-5.37.44-.1.67.02.53.51-1.63,5.59-4.86,9.96-9.91,12.9-.76.44-1.11,1.01-1.33,1.83-.52,1.93-1.3,3.75-2.45,5.41-2.59,3.74-6.01,6.06-10.69,6.21-.39.01-.81,0-.93.51-.2.17-.39.17-.56-.03Z"/>
  <path class="cls-1" d="M287.94,269.53c3.95,4.01,4.24,8.75,2.51,13.74-.5,1.45-.59,2.62-.11,4.09,1.67,5.1,1.45,10.16-.84,15.14-.78-3.96-1.93-7.71-4.74-10.67-.52-.02-.79.29-1.08.56-4.49,4.34-9.49,8.04-14.45,11.8-4.24,3.22-9.04,5.34-13.99,7.19-5.37,2.01-10.8,3.89-15.98,7.17-.66-3.69-1.36-7.15-2.29-10.56-.23-.56-.36-1.06.54-1.02.07.04.15.07.21.12,4.58,3.92,8.67,4.46,14.56.43,6.89-4.72,10.72-11.4,11.95-19.62.02-.13-.1-.28-.24-.65-3.46.9-6.32,2.75-8.72,5.38-.44.09-.67-.03-.53-.53,1.65-5.57,4.84-9.97,9.92-12.88.89-.51,1.17-1.21,1.4-2.06.73-2.65,1.98-5.02,3.85-7.05,2.41-2.63,5.36-4.17,8.97-4.36.44-.02.99.13,1.17-.51.2-.17.39-.17.57.03.24.2.46.53.73.58,2.2.45,4.06,1.66,6.03,2.62.39.24.11.86.59,1.04Z"/>
  <path class="cls-1" d="M406.46,307.38c.21.12.44.2.62.35,3.98,3.29,8.18,3.23,12.41.65,7.45-4.55,11.72-11.29,13.2-19.85.07-.39.12-.79-.26-1.2-3.25.72-5.86,2.62-8.3,4.84-.48.09-.73-.05-.59-.58,1.35-4.99,4.3-8.85,8.56-11.66,1.41-.93,2.31-1.91,2.79-3.59.99-3.46,3.05-6.29,6.03-8.37,1.37-.96,2.84-1.78,4.59-1.84,1.31-.31,2.67,0,3.97-.39,2.24.57,4.35,1.43,6.23,2.8.29.08.35.36.52.55,4.16,4.38,4.78,9.39,2.53,14.84-.44,1.06-.38,1.91,0,2.94,1.6,4.42,1.67,8.91.32,13.41-.22.74-.33,1.56-1.2,2.32-.59-4.11-1.79-7.8-4.58-10.77-.79.03-1.1.67-1.54,1.07-4.95,4.56-10.28,8.63-15.74,12.54-3.21,2.29-6.8,3.87-10.45,5.28-5.95,2.31-12.04,4.25-17.68,7.79-.74-3.43-1.44-6.67-2.13-9.9-.17-.64-.3-1.25.7-1.21Z"/>
  <path class="cls-1" d="M287.84,437.99c3.88,3.91,4.36,8.59,2.73,13.53-.59,1.78-.59,3.22-.06,5,1.48,4.95,1.24,9.89-1.04,15.09-.28-1.34-.46-2.25-.65-3.16-.57-2.62-1.68-4.97-3.26-7.13-.7-.96-1.23-.95-2.07-.13-3.27,3.19-6.94,5.89-10.47,8.78-5.51,4.5-11.6,7.88-18.3,10.25-5.12,1.81-10.2,3.73-14.88,6.56-.11.07-.3,0-.66,0-.65-3.83-1.46-7.7-2.76-11.77,1.1.33,1.66.97,2.28,1.47,3.6,2.87,7.45,3.1,11.41.95,6.74-3.66,10.97-9.38,13.21-16.63.47-1.51.8-3.07.93-4.89-3.47.61-6.03,2.54-8.49,4.65-.91.04-.82-.45-.55-1.04,1.48-4.88,4.49-8.6,8.76-11.28,1.17-.73,1.85-1.58,2.22-2.87,1.02-3.57,3-6.52,6.02-8.69,1.64-1.18,3.43-2.04,5.51-2.12.95-.23,1.98-.19,2.81-.82.37.55.88.81,1.54.96,1.78.4,3.37,1.23,4.82,2.32.45.18.79.48.96.95Z"/>
  <path class="cls-1" d="M56.26,455.67c-.48-.6-1.17-.72-1.86-.9-1.45-.39-2.81-.99-3.97-1.97-.83-.09-1.18-.69-1.49-1.35-3.86-3.95-4.22-8.63-2.52-13.55.56-1.63.56-2.95.05-4.56-1.57-4.97-1.29-9.9.84-15.1.88,2.18.9,4.26,1.77,6.08.85,1.79,1.72,3.57,3.34,5.03,3.76-3.59,7.81-6.7,11.76-9.91,5.47-4.44,11.52-7.72,18.12-10.07,5.11-1.82,10.2-3.73,14.87-6.58.12-.07.3-.03.58-.06.6,3.9,1.48,7.75,2.67,11.65-1.1-.1-1.58-.79-2.17-1.26-3.6-2.87-7.45-3.08-11.42-.97-5.5,2.92-9.32,7.43-11.9,13.04-.63,1.38-1.17,2.8-1.5,4.29-.29,1.31-.53,2.62-.88,4.36,3.81-.99,6.67-2.8,9.07-5.42.45-.14.64,0,.55.48-1.56,5.53-4.76,9.83-9.69,12.78-.9.54-1.33,1.19-1.6,2.19-.82,2.96-2.27,5.59-4.53,7.72-1.76,1.66-3.74,2.95-6.21,3.29-1.27.37-2.73-.26-3.86.79Z"/>
  <path class="cls-1" d="M237.6,138.48c.26.18.54.34.79.54,4.14,3.42,8.48,3.3,12.84.57,6.76-4.24,10.91-10.37,12.6-18.15.18-.82.57-1.67.29-2.72-3.7.65-6.44,2.87-9.14,5.42-.35-.64-.11-1.11.05-1.6,1.62-4.88,4.54-8.78,8.9-11.48,1.28-.79,1.93-1.71,2.31-3.08.68-2.5,1.98-4.7,3.76-6.58,2.71-2.88,5.99-4.44,10.02-4.16.39-.25.76-.2,1.12.07,1.95.37,3.81.92,5.31,2.31.32.5,1.21.28,1.33,1.05,3.9,3.88,4.45,8.54,2.84,13.5-.57,1.76-.68,3.2-.13,4.99,1.52,4.95,1.26,9.89-.98,15.2-.29-1.32-.49-2.17-.67-3.03-.55-2.62-1.61-5.01-3.23-7.14-.96-1.26-1.02-1.27-2.18-.16-4.29,4.08-9.04,7.6-13.72,11.2-4.22,3.25-8.97,5.47-13.92,7.33-5.45,2.04-10.96,3.95-15.97,6.99-.11.07-.3,0-.64,0-.53-3.5-1.38-6.95-2.24-10.4-.13-.58.15-.75.67-.66Z"/>
  <path class="cls-1" d="M393.41,118.41c-.75-.8-1.85-.75-2.77-1.14-1.08-.45-2.16-.89-3.05-1.68-.37-.44-1.22-.25-1.35-1.02-4.07-4.34-4.53-9.33-2.42-14.66.46-1.17.32-2.09-.05-3.18-1.73-5.19-1.54-10.32.73-15.92.3,1.28.51,2.05.66,2.84.52,2.63,1.56,5.02,3.15,7.17,1.05,1.42,1.1,1.44,2.31.28,3.94-3.75,8.3-6.99,12.58-10.33,4-3.12,8.36-5.56,13.07-7.41,6.15-2.42,12.5-4.37,18.47-8.1.74,3.8,1.45,7.35,2.4,10.84.13.57-.14.73-.66.64-.07-.04-.15-.06-.21-.11-4.91-4.2-9.3-4.07-14.76-.22-6.79,4.79-10.56,11.47-11.75,19.68,2.52.24,5.96-1.69,9.03-4.99.44-.13.65,0,.53.48-1.61,5.6-4.83,10-9.89,12.95-.86.5-1.2,1.16-1.44,2.03-.7,2.57-1.88,4.9-3.67,6.89-2.45,2.72-5.42,4.39-9.14,4.54-.44.02-.98-.14-1.24.44-.18.19-.36.19-.54-.01Z"/>
  <path class="cls-1" d="M250.49,429.42c-1.43,5.16-4.49,9.13-8.99,11.95-1.16.73-1.8,1.57-2.21,2.89-1.47,4.72-4.27,8.36-9,10.24-.43.17-.92.21-1.39.3-1.42.43-2.93.02-4.35.45-2.25-.53-4.34-1.43-6.23-2.78-.29-.08-.35-.37-.51-.57-4.22-4.43-4.79-9.49-2.47-14.98.37-.89.37-1.6.05-2.48-1.88-5.05-1.85-10.11.08-15.14.28-.31.56-.31.84,0,.53,3.71,1.86,7.07,4.3,9.78.55.18.76-.1.97-.31,4.27-4.1,9.01-7.63,13.68-11.26,4.08-3.16,8.61-5.47,13.4-7.31,5.88-2.25,11.89-4.19,17.47-7.71.74,3.42,1.43,6.66,2.13,9.89.16.64.3,1.26-.71,1.22-.14-.07-.31-.11-.43-.21-4.3-3.62-8.76-3.32-13.22-.41-7.13,4.67-11.27,11.31-12.6,19.72-.04.22.03.46.06.95,3.47-.63,6.05-2.63,8.53-4.83.48-.1.72.04.58.57Z"/>
  <path class="cls-1" d="M31.99,321.91c3.92-.04,7.21,3.18,7.26,7.1.05,3.92-3.18,7.21-7.1,7.25-4,.04-7.16-3.09-7.19-7.08-.03-4.02,3.07-7.22,7.03-7.26Z"/>
  <path class="cls-1" d="M207.78,328.95c.07,4-3.04,7.24-7,7.31-3.93.07-7.25-3.1-7.34-7.02-.09-3.87,3.14-7.23,7.05-7.32,3.94-.09,7.22,3.08,7.28,7.04Z"/>
  <path class="cls-1" d="M362.08,329.1c0-4,3.15-7.18,7.11-7.18,3.95,0,7.16,3.22,7.16,7.17,0,3.95-3.2,7.17-7.15,7.17-3.96,0-7.11-3.17-7.12-7.17Z"/>
  <path class="cls-1" d="M207.78,160.46c0,3.94-3.24,7.22-7.13,7.2-3.93-.02-7.19-3.27-7.21-7.17-.02-3.94,3.17-7.11,7.18-7.11,4.04,0,7.15,3.07,7.16,7.08Z"/>
  <path class="cls-1" d="M24.96,160.43c.01-4.04,3.09-7.07,7.16-7.06,4.02.02,7.18,3.18,7.14,7.15-.04,3.92-3.32,7.16-7.23,7.15-3.93-.01-7.08-3.24-7.07-7.24Z"/>
  <path class="cls-1" d="M369.31,504.81c-4.09.05-7.18-2.93-7.23-6.98-.06-4.02,3-7.2,6.99-7.27,4-.07,7.17,3.01,7.23,7.03.06,4.07-2.95,7.18-6.99,7.22Z"/>
  <path class="cls-1" d="M369.1,153.38c4.05-.03,7.16,2.98,7.24,7.01.08,3.92-3.11,7.2-7.06,7.28-3.92.08-7.17-3.12-7.2-7.1-.04-4.08,2.97-7.16,7.02-7.19Z"/>
  <path class="cls-1" d="M200.74,504.81c-4.03.04-7.22-3.02-7.3-6.99-.07-3.92,3.12-7.18,7.08-7.23,4.01-.05,7.21,3.04,7.25,7.01.04,4.03-3.02,7.16-7.04,7.21Z"/>
  <path class="cls-1" d="M24.96,497.56c.06-4,3.23-7.05,7.26-6.97,3.99.08,7.13,3.33,7.03,7.27-.1,3.98-3.29,7.01-7.33,6.95-4.03-.06-7.02-3.17-6.97-7.25Z"/>
  <path class="cls-1" d="M175.05,191.86c.02,3.55-2.94,6.56-6.51,6.61-3.63.05-6.76-3.07-6.69-6.69.06-3.53,3.15-6.56,6.65-6.52,3.56.04,6.54,3.03,6.55,6.59Z"/>
  <path class="cls-1" d="M505.69,198.48c-3.56.07-6.58-2.83-6.71-6.42-.13-3.58,2.98-6.78,6.6-6.79,3.5,0,6.57,3.04,6.6,6.56.03,3.53-2.95,6.58-6.49,6.64Z"/>
  <path class="cls-1" d="M330.49,360.48c0-3.67,2.82-6.49,6.49-6.5,3.78-.02,6.63,2.87,6.57,6.66-.06,3.65-2.92,6.43-6.61,6.4-3.66-.03-6.46-2.88-6.45-6.55Z"/>
  <path class="cls-1" d="M336.8,29.78c-3.66-.09-6.38-2.96-6.32-6.67.06-3.63,2.97-6.44,6.62-6.4,3.73.05,6.55,3.03,6.43,6.82-.11,3.64-3.02,6.34-6.73,6.25Z"/>
  <path class="cls-1" d="M168.36,29.78c-3.59-.04-6.54-3.02-6.51-6.56.03-3.57,3-6.51,6.59-6.51,3.69,0,6.73,3.08,6.61,6.71-.11,3.63-3.03,6.4-6.69,6.36Z"/>
  <path class="cls-1" d="M505.38,29.78c-3.63-.09-6.49-3.06-6.4-6.65.09-3.67,3.21-6.57,6.91-6.42,3.46.14,6.31,3.11,6.29,6.56-.02,3.67-3.08,6.6-6.8,6.51Z"/>
  <path class="cls-1" d="M330.49,191.68c.08-3.58,3.13-6.51,6.66-6.4,3.6.11,6.42,3.06,6.39,6.68-.04,3.6-2.98,6.53-6.55,6.51-3.66-.01-6.58-3.07-6.5-6.8Z"/>
  <path class="cls-1" d="M168.42,353.98c3.61-.01,6.57,2.85,6.62,6.43.06,3.65-2.98,6.66-6.68,6.62-3.59-.04-6.54-3-6.52-6.56.02-3.57,2.96-6.48,6.58-6.49Z"/>
  <path class="cls-1" d="M505.58,367.04c-3.59,0-6.56-2.91-6.6-6.48-.04-3.56,2.89-6.54,6.48-6.58,3.73-.04,6.77,2.93,6.72,6.58-.05,3.58-3,6.48-6.6,6.48Z"/>
  <path class="cls-1" d="M135.35,497.8c-.04,3.23-2.62,5.74-5.82,5.69-3.2-.05-5.72-2.66-5.68-5.86.04-3.17,2.71-5.77,5.86-5.71,3.19.06,5.69,2.67,5.65,5.88Z"/>
  <path class="cls-1" d="M135.35,160.6c-.05,3.19-2.69,5.75-5.86,5.67-3.17-.07-5.71-2.73-5.65-5.91.06-3.23,2.6-5.65,5.89-5.59,3.28.05,5.67,2.53,5.62,5.83Z"/>
  <path class="cls-1" d="M466.64,334.85c-3.22-.05-5.71-2.61-5.66-5.85.04-3.19,2.66-5.73,5.85-5.69,3.16.04,5.72,2.68,5.68,5.87-.04,3.18-2.66,5.71-5.87,5.66Z"/>
  <path class="cls-1" d="M135.35,329.21c-.05,3.23-2.61,5.7-5.85,5.65-3.17-.05-5.72-2.7-5.65-5.88.07-3.18,2.7-5.71,5.89-5.66,3.2.05,5.67,2.64,5.61,5.89Z"/>
  <path class="cls-1" d="M460.98,497.83c-.06-3.2,2.45-5.82,5.64-5.9,3.15-.08,5.82,2.5,5.88,5.67.06,3.19-2.46,5.82-5.65,5.89-3.19.07-5.82-2.47-5.88-5.66Z"/>
  <path class="cls-1" d="M298.07,334.85c-3.19-.05-5.74-2.69-5.66-5.88.07-3.2,2.7-5.72,5.89-5.66,3.17.06,5.77,2.76,5.68,5.89-.08,3.19-2.71,5.7-5.91,5.65Z"/>
  <path class="cls-1" d="M460.98,160.58c-.05-3.24,2.41-5.77,5.66-5.81,3.29-.04,5.82,2.38,5.87,5.61.05,3.18-2.5,5.83-5.67,5.89-3.15.06-5.81-2.52-5.86-5.69Z"/>
  <path class="cls-1" d="M298.06,503.47c-3.19-.06-5.72-2.7-5.64-5.88.08-3.19,2.74-5.76,5.88-5.67,3.14.09,5.77,2.82,5.68,5.91-.09,3.19-2.73,5.7-5.92,5.64Z"/>
  <path class="cls-1" d="M298.18,154.77c3.2,0,5.82,2.58,5.81,5.72-.01,3.12-2.68,5.78-5.81,5.79-3.18,0-5.73-2.56-5.73-5.79,0-3.26,2.46-5.72,5.74-5.72Z"/>
  <path class="cls-1" d="M382.98,390.02c-2.54,0-4.54-2.03-4.51-4.57.03-2.51,2.15-4.55,4.64-4.48,2.36.07,4.39,2.13,4.42,4.49.04,2.49-2.04,4.57-4.55,4.56Z"/>
  <path class="cls-1" d="M45.76,390.02c-2.53-.05-4.5-2.14-4.41-4.67.08-2.39,2.12-4.37,4.5-4.38,2.48,0,4.54,2.08,4.52,4.6-.01,2.52-2.07,4.51-4.62,4.46Z"/>
  <path class="cls-1" d="M45.84,221.44c-2.49-.01-4.54-2.12-4.5-4.62.04-2.53,2.09-4.47,4.66-4.41,2.45.06,4.36,2.01,4.37,4.45,0,2.52-2.04,4.6-4.53,4.58Z"/>
  <path class="cls-1" d="M45.98,52.75c-2.57.05-4.61-1.89-4.63-4.42-.02-2.49,2.06-4.62,4.52-4.61,2.37,0,4.41,2,4.51,4.38.1,2.54-1.84,4.6-4.4,4.65Z"/>
  <path class="cls-1" d="M387.53,216.93c-.02,2.45-2.21,4.58-4.64,4.51-2.42-.07-4.38-2.04-4.42-4.45-.04-2.55,1.93-4.56,4.48-4.58,2.53-.02,4.59,2.02,4.57,4.52Z"/>
  <path class="cls-1" d="M218.89,216.78c.05,2.57-1.88,4.63-4.4,4.67-2.48.04-4.56-2.03-4.57-4.54,0-2.47,1.86-4.41,4.32-4.49,2.59-.09,4.6,1.79,4.65,4.36Z"/>
  <path class="cls-1" d="M383.01,43.72c2.44.01,4.56,2.19,4.52,4.64-.05,2.51-2.13,4.46-4.69,4.39-2.45-.07-4.35-2-4.36-4.45-.02-2.51,2.04-4.6,4.53-4.59Z"/>
  <path class="cls-1" d="M214.35,52.76c-2.56-.03-4.51-2.05-4.44-4.61.07-2.4,2.08-4.4,4.45-4.42,2.5-.02,4.53,2.02,4.53,4.55,0,2.58-1.96,4.51-4.54,4.47Z"/>
  <path class="cls-1" d="M218.89,385.57c-.02,2.54-2.04,4.51-4.58,4.45-2.43-.06-4.35-2.01-4.39-4.45-.03-2.51,2.01-4.6,4.5-4.6,2.5,0,4.49,2.04,4.47,4.6Z"/>
  <path class="cls-1" d="M309.12,233.57c-2.14-.05-3.94-1.95-3.87-4.06.08-2.2,1.86-3.88,4.07-3.83,2.2.06,3.93,1.85,3.87,4.02-.06,2.14-1.93,3.92-4.06,3.86Z"/>
  <path class="cls-1" d="M140.76,64.93c-2.17.06-3.98-1.67-4.03-3.85-.05-2.19,1.64-3.99,3.82-4.05,2.2-.06,3.95,1.62,4,3.85.05,2.26-1.57,3.99-3.79,4.05Z"/>
  <path class="cls-1" d="M313.19,60.9c.06,2.17-1.68,3.97-3.88,4.01-2.2.05-3.99-1.65-4.06-3.85-.06-2.11,1.75-4,3.88-4.04,2.13-.04,4,1.74,4.05,3.87Z"/>
  <path class="cls-1" d="M140.63,225.66c2.22-.01,3.91,1.68,3.92,3.93,0,2.24-1.67,3.97-3.87,3.98-2.18.01-3.94-1.74-3.95-3.93-.01-2.19,1.74-3.97,3.9-3.98Z"/>
  <path class="cls-1" d="M477.73,64.93c-2.2-.03-3.87-1.77-3.85-4,.02-2.23,1.74-3.93,3.94-3.9,2.19.03,3.88,1.78,3.86,4-.02,2.19-1.79,3.93-3.96,3.9Z"/>
  <path class="cls-1" d="M309.34,394.29c2.17.06,3.92,1.9,3.85,4.04-.07,2.2-1.84,3.84-4.08,3.78-2.22-.05-3.92-1.83-3.85-4.02.07-2.15,1.91-3.87,4.08-3.81Z"/>
  <path class="cls-1" d="M481.69,229.51c.04,2.22-1.63,3.99-3.81,4.05-2.2.06-3.95-1.63-3.99-3.85-.05-2.24,1.6-3.99,3.8-4.05,2.18-.06,3.97,1.67,4.01,3.85Z"/>
  <path class="cls-1" d="M140.77,402.12c-2.25.04-3.98-1.58-4.03-3.79-.06-2.21,1.61-3.98,3.81-4.03,2.23-.06,3.96,1.58,4.01,3.81.05,2.27-1.55,3.97-3.78,4.01Z"/>
  <path class="cls-1" d="M481.69,398.21c.01,2.24-1.64,3.9-3.9,3.91-2.25.01-3.91-1.63-3.91-3.89,0-2.25,1.66-3.93,3.89-3.94,2.22,0,3.91,1.68,3.92,3.91Z"/>
  <path class="cls-1" d="M112.21,96.88c-.32.15-.58.44-.99.36-1.32-3.39-4.22-4.15-6.88-1.87-1.23,1.05-1.75,2.65-3.02,3.64-.24-.24-.26-.49-.07-.76.69-.97,1.28-2.03,2.08-2.89,2.5-2.7,5.33-2.68,7.82-.02.43.46.92.88,1.07,1.54Z"/>
  <path class="cls-1" d="M378.48,450.98c-.66-.67-.71-1.58-.95-2.4-.8-2.67-1.51-3.27-4.36-3.51-.38-.03-.8.06-1.1-.28,1.87-1.18,4.45-.38,5.53,1.88.58,1.2.87,2.55,1.28,3.83-.07.22-.2.38-.41.48Z"/>
  <path class="cls-1" d="M295.55,270.01c.66.67.71,1.58.95,2.4.8,2.68,1.5,3.27,4.37,3.5.38.03.8-.05,1.1.29-1.91,1.17-4.44.39-5.54-1.88-.58-1.2-.87-2.55-1.28-3.84.07-.22.2-.38.41-.48Z"/>
  <path class="cls-1" d="M43.72,116.41c-1.82-.86-2.54-2.51-3.03-4.29-.43-1.54-.94-3.03-2.31-4.03-.13-.14-.17-.27-.11-.4.05-.12.1-.19.15-.19,1.82.64,2.41,2.24,2.8,3.85.42,1.77,1.25,3.22,2.54,4.46.21.21.2.41-.03.6Z"/>
  <path class="cls-1" d="M227.46,457.63c2.79,1.46,4.68.02,6.42-1.96.24-.21.47-.18.67.07-1.31,2.12-3.02,3.54-5.71,3.24-.21-.08-.37-.28-.62-.28-.52.01-.89-.31-1.28-.6-.07-.08-.13-.16-.2-.24.05-.09.1-.18.15-.28.2-.1.39-.08.57.06Z"/>
  <path class="cls-1" d="M433.66,436.58c2.34.73,4.1-.02,5.35-2.09.19-.32.51-.57.76-.85.19-.25.37-.25.55.02-.3.84-.84,1.53-1.39,2.19-1.47,1.74-2.87,2.05-5.28,1.24-.17-.12-.22-.23-.16-.34.06-.11.12-.16.17-.16Z"/>
  <path class="cls-1" d="M123.8,435.64c2.02.5,2.95,2.07,3.64,3.82.35.88.49,1.84.73,2.77.24.47.01.58-.41.53-.21-.59-.49-1.16-.62-1.76-.43-2.1-1.53-3.72-3.37-4.83-.15-.12-.2-.24-.14-.36.06-.11.11-.17.17-.17Z"/>
  <path class="cls-1" d="M294.53,437.1c.91.73,1.29,1.77,1.64,2.84.36,1.13.8,2.25,1.2,3.37-.06.18-.18.31-.36.38-.79-.55-.99-1.43-1.19-2.27-.33-1.41-.9-2.71-1.66-3.93.07-.18.2-.3.38-.38Z"/>
  <path class="cls-1" d="M235.61,453.37c2.17-1.79,3.46-1.85,6.36-.03-2.3-.28-4.27-1.08-5.97.4-.18-.07-.32-.19-.39-.37Z"/>
  <path class="cls-1" d="M438.41,267.63c-2.15,1.78-3.45,1.85-6.32.05,2.27.25,4.24,1.06,5.93-.41.19.06.32.18.39.36Z"/>
  <path class="cls-1" d="M386.24,114.57c.47.32,1.08.45,1.35,1.02-.94-.22-1.59.44-2.36.76-1.29.53-2.58,1.12-3.96.22.06-.3.34-.32.55-.45,1.65,0,3.29-.05,4.41-1.56Z"/>
  <path class="cls-1" d="M48.94,451.44c.5.45,1,.9,1.49,1.35-.87-.17-1.48.45-2.21.7-1.15.39-2.28,1.23-3.58.4-.15-.12-.2-.23-.15-.34.06-.11.11-.16.17-.16,1.29.04,2.55-.05,3.69-.77.44-.28.71-.63.59-1.18Z"/>
  <path class="cls-1" d="M231.24,120.8c1.96-1.09,2.77-3.25,4.37-4.68.12.08.24.14.38.18,0,0,.05.2.05.2-1.33,1.68-2.19,3.8-4.35,4.71-.13-.08-.26-.14-.4-.19,0,0-.05-.22-.05-.22Z"/>
  <path class="cls-1" d="M234.56,286.11c1.66-2.66,3.04-3.18,5.89-2.21-.05.3-.32.32-.52.44-2.56-.75-3.98.81-5.28,2.6-.25-.25-.28-.53-.09-.83Z"/>
  <path class="cls-1" d="M64.32,457.6c-2.25,1.86-3.26,1.96-5.78.56.04-.29.31-.33.5-.45,1.71.84,3.31.55,4.84-.46.1.08.22.14.35.18,0,0,.09.17.09.17Z"/>
  <path class="cls-1" d="M393.5,287.23c.66-1.25,1.77-.92,2.82-.81-.5.54-1.37.11-1.88.69.32,1.26,1.58,1.6,2.33,2.42.13.13.18.26.13.38-.05.12-.1.18-.14.18-1.49-.49-2.59-1.44-3.25-2.87Z"/>
  <path class="cls-1" d="M72.04,115.9c-2.14-.68-3.99-.37-5.36,1.56-.25.2-.48.18-.69-.06,1.86-2.7,3.45-3.15,6.52-1.88-.1.2-.26.32-.48.37Z"/>
  <path class="cls-1" d="M224.62,286.78c.91-.56,1.88-.55,2.89-.34-.49.48-1.24.15-1.78.57.53,1.26,1.73,1.81,2.66,2.63.15.11.2.23.15.34-.05.11-.11.16-.16.16-1.79-.52-2.93-1.76-3.76-3.36Z"/>
  <path class="cls-1" d="M449.4,434.21c-.9.57-1.88.54-2.87.35.58-.19,1.16-.38,1.76-.58-.54-1.26-1.74-1.81-2.66-2.63-.15-.11-.2-.23-.15-.34.05-.11.11-.16.16-.16,1.79.52,2.93,1.76,3.76,3.36Z"/>
  <path class="cls-1" d="M379.5,283.9c-1.6-1.39-1.74-3.42-2.31-5.27.04-.22.17-.36.37-.44,1.09,1.64,1.04,3.77,2.32,5.33-.07.18-.2.31-.37.38Z"/>
  <path class="cls-1" d="M96.92,436.67c2.19.71,3.68-.31,4.89-2,.42-.08.69-.02.45.49-1.95,2.47-3.12,2.85-5.86,1.9.12-.21.28-.34.51-.4Z"/>
  <path class="cls-1" d="M59.04,457.71c-.17.15-.33.3-.5.45-1-.61-1.84-1.36-2.28-2.48,1.06-1.37,2.52-.79,3.86-.79-.81.68-1.84.24-2.83.57.06,1.16,1.07,1.59,1.75,2.25Z"/>
  <path class="cls-1" d="M386.08,451.46c.52.17.59.6.59,1.06-1.42,1.12-2.87,2.15-4.83,1.34-.16-.1-.21-.19-.16-.29.05-.09.11-.14.16-.14,1.28.02,2.53-.09,3.66-.81.45-.29.71-.62.57-1.17Z"/>
  <path class="cls-1" d="M100.27,268.51c-1.79.83-3.43.57-4.95-.69,1.46.04,2.9.52,4.37.23.47-.2.63,0,.58.46Z"/>
  <path class="cls-1" d="M49.06,282.99c.46.16.67.55.89.94-1.76,1.09-3.55,2.01-5.72,1.38-.06-.43.03-.68.53-.45,1.69-.03,3.38-.06,4.3-1.87Z"/>
  <path class="cls-1" d="M377.96,112.27c-.72-1.61-1.05-3.48-2.87-4.36.1-.21.27-.34.49-.4,1.94.75,2.42,2.47,2.8,4.25-.07.23-.21.4-.42.51Z"/>
  <path class="cls-1" d="M224.55,455.25c1.38-.78,2.88-.42,4.35-.45-.93.75-2.13.21-3.14.62-.16.75.63,1.06.73,1.66.14.1.19.2.14.3-.04.1-.09.16-.14.16-.93-.52-1.47-1.38-1.94-2.29Z"/>
  <path class="cls-1" d="M447.13,263.73c-1.18-.8-2.48-1.07-3.88-.91-.26-.17-.26-.36-.02-.55,1.77-.89,3.1-.07,4.33,1.13,0,0-.09.17-.09.17-.12.05-.23.1-.34.17Z"/>
  <path class="cls-1" d="M401.53,456.7c1.14-1.26,1.69-3,3.28-3.88.49-.26.57,0,.53.41-1.48,1-2.03,2.78-3.33,3.93,0,0-.17-.04-.17-.04-.1-.06-.19-.15-.26-.25,0,0-.04-.18-.04-.18Z"/>
  <path class="cls-1" d="M280.53,433.76c-.65,1.26-1.76.92-2.81.82.5-.46,1.22-.22,1.84-.6-.07-1.16-1.24-1.46-1.8-2.22.09-.21.24-.33.46-.38,1.04.53,1.85,1.28,2.31,2.38Z"/>
  <path class="cls-1" d="M446.55,94.67c-1.93-1.21-3.61-.47-5.24.66-.13-.19-.14-.39-.01-.59,1.58-1.63,3.36-1.77,5.3-.71.2.23.18.44-.05.64Z"/>
  <path class="cls-1" d="M449.47,265.74c-1.26.72-2.62.48-3.97.39.82-.67,1.86-.19,2.76-.55.22-.76-.64-1.05-.72-1.67l-.15-.17.15-.17s.02-.18.02-.18c.85.61,1.46,1.41,1.91,2.34Z"/>
  <path class="cls-1" d="M442.87,262.9c-1.39.84-2.3,2.18-3.4,3.32-.18.18-.35.18-.52,0,.63-1.51,1.55-2.76,3.12-3.41.29-.18.56-.15.8.1Z"/>
  <path class="cls-1" d="M127.73,105.44c-.53-1.52-1.06-3.03-1.59-4.55-.16-.26-.14-.51.08-.73,1.33,1.31,1.51,3.09,1.96,4.76.26.52-.03.58-.45.52Z"/>
  <path class="cls-1" d="M59.96,120.93c1.51.47,2.7-.3,3.92-.98.22.07.38.2.47.41-1.44,1.28-2.97,2.1-4.89,1,.11-.21.27-.36.5-.43Z"/>
  <path class="cls-1" d="M401.52,120.29c-1.41,1.4-2.98,2.1-4.92,1.1.06-.31.36-.34.58-.47,1.52.52,2.68-.38,3.91-1,.1.09.22.15.35.18,0,0,.09.18.09.18Z"/>
  <path class="cls-1" d="M36.95,444.33c.96.09,1.87.27,2.47,1.14.13.21.13.42-.02.63-1.27-1.24-3.01-.84-4.51-1.28-.04-.01-.08-.15-.05-.19.07-.11.18-.19.28-.29.61.18,1.23.21,1.84-.02Z"/>
  <path class="cls-1" d="M236.01,115.85c1.79-1.58,3.63-.95,5.83-.16-1.33.65-2.21-.22-3.17-.17-1.02.05-1.84.43-2.63.97l-.09-.16c-.07-.17-.05-.33.06-.48Z"/>
  <path class="cls-1" d="M278.27,94.82c-1.37-.75-2.79-1.08-4.28-.36-.29.2-.54.17-.77-.1,1.69-1.32,3.37-1.41,5.07-.02.11.11.14.22.1.32-.04.1-.08.15-.11.15Z"/>
  <path class="cls-1" d="M126.21,100.16c-.03.24-.05.49-.08.73-1.12-1.21-2.33-2.23-4.13-2.07-.44.2-.61.04-.57-.42,1.98-.49,3.62-.04,4.77,1.76Z"/>
  <path class="cls-1" d="M68.21,452.47c1.69-.76,3.2-.36,4.63.65-1.38-.17-2.74-.44-4.12-.21-.52.25-.57-.03-.51-.44Z"/>
  <path class="cls-1" d="M405.33,453.23c-.18-.14-.35-.27-.53-.41,1.37-1.12,2.86-.94,4.38-.38.05.45-.06.72-.58.49-1.1-.03-2.22-.21-3.27.3Z"/>
  <path class="cls-1" d="M104.64,262.89c1.2-.72,2.4-1.47,3.84-.59.26.18.25.35-.02.51-1.16-.09-2.31-.1-3.36.52-.5.22-.56-.02-.46-.44Z"/>
  <path class="cls-1" d="M119.44,269.59c-.47-.43-.93-.86-1.4-1.29,1.24.02,2.07-1.12,3.29-1.18.46-.14,1-.45.99.45-1.13.43-2.72.2-2.88,2.02Z"/>
  <path class="cls-1" d="M408.73,284.35c-1.36-.43-2.64-.22-3.86.46-.15-.11-.2-.22-.15-.34.04-.12.09-.18.14-.18,1.2-1.12,2.51-1.14,3.89-.4.16.11.2.21.15.31-.05.1-.11.15-.16.15Z"/>
  <path class="cls-1" d="M212.05,115.58c1.07.55,2.23.54,3.4.5.15.12.2.24.15.36-.05.12-.1.18-.15.18-1.23.72-2.34.41-3.4-.4-.13-.22-.13-.43,0-.65Z"/>
  <path class="cls-1" d="M265.3,436.65c1.35.42,2.64.22,3.86-.45.15.11.2.22.16.34-.04.12-.09.18-.13.18-1.21,1.1-2.51,1.14-3.9.38-.16-.1-.21-.2-.15-.3.05-.09.11-.14.16-.14Z"/>
  <path class="cls-1" d="M65.8,287.38c-.81,1.31-1.87,2.33-3.4,2.75-.16-.11-.21-.22-.16-.34.05-.12.1-.18.15-.18,1.11-.79,2.2-1.6,2.98-2.74.41-.06.69-.02.44.5Z"/>
  <path class="cls-1" d="M104.11,432.05c1.31-1.58,2.99-1.56,4.77-1.13.07.45-.09.62-.53.42-1.64-.34-2.94.45-4.23,1.28-.13-.19-.14-.38-.02-.57Z"/>
  <path class="cls-1" d="M42.67,451.89c.1.14.2.28.31.43-.23.25-.48.28-.76.09-1.08-1.08-1.47-2.47-1.75-3.91.12-.19.1-.49.42-.52.46,1.14.93,2.27,1.39,3.41.14.16.27.33.39.49Z"/>
  <path class="cls-1" d="M295.95,104.11c-.61-1.3-.9-2.76-1.89-3.88-.16-.45,0-.61.46-.49,1.05,1.08,1.6,2.4,1.84,3.87-.06.23-.2.4-.41.51Z"/>
  <path class="cls-1" d="M48.88,114.17c.51.46,1.03.92,1.54,1.38-1.27-.21-2.06,1.01-3.24,1.07-.17.04-.35.07-.53.06-.07-.06-.14-.11-.21-.17-.06-.19,0-.34.17-.44.92-.44,2.31-.32,2.27-1.9Z"/>
  <path class="cls-1" d="M56.24,118.38c.31-.14.52-.48.92-.42,0,1.36,1.31,1.75,1.93,2.65.21.21.2.41-.03.6-1.28-.6-2.25-1.52-2.82-2.83Z"/>
  <path class="cls-1" d="M278.22,431.38c-.15.13-.31.25-.46.38-1.46-.73-2.88-.53-4.26.24-.22-.2-.23-.41-.03-.63,1.58-.97,3.17-.98,4.75.01Z"/>
  <path class="cls-1" d="M466.27,106.45c1.18.92,2.59.98,4.39.99-2.18.81-2.74.73-4.42-.4-.06-.15-.12-.3-.18-.45.07-.04.14-.09.21-.13Z"/>
  <path class="cls-1" d="M287.84,437.99c-.48-.15-.73-.54-.96-.95.99-.42,1.82-1.17,2.93-1.33.23.06.4.2.5.41-.75.73-2.15.59-2.47,1.87Z"/>
  <path class="cls-1" d="M381.83,116.13c-.18.15-.37.3-.55.45-1.34-.35-2.09-1.33-2.66-2.5.03-.22.16-.36.36-.44.84.96,1.51,2.11,2.85,2.5Z"/>
  <path class="cls-1" d="M206.31,445.13c-.9-.05-1.8-.1-2.7-.15,0-.19,0-.37,0-.56.88-.3,1.78-.41,2.71.2.16.12.2.23.15.34-.06.11-.11.16-.17.16Z"/>
  <path class="cls-1" d="M209.07,446.68c.54,1.18.91,2.4,1.12,3.68.2.31.16.57-.14.8-.95-1.14-.94-2.63-1.41-3.95-.21-.47,0-.6.44-.53Z"/>
  <path class="cls-1" d="M467.71,275.87c.9.13,1.87-.08,2.71.55-.92.34-1.82.58-2.74-.05-.15-.12-.2-.24-.14-.35.06-.11.11-.16.17-.16Z"/>
  <path class="cls-1" d="M280.59,265.28c-.19,0-.38-.02-.57-.03-.92-.79-1.84-1.59-2.76-2.38.09-.2.25-.33.46-.38,1.3.58,2.29,1.47,2.86,2.79Z"/>
  <path class="cls-1" d="M463.98,269.84c.95,1.14.94,2.63,1.41,3.95.21.47,0,.6-.43.53-.54-1.18-.91-2.4-1.12-3.68-.2-.31-.16-.57.14-.79Z"/>
  <path class="cls-1" d="M393.43,455.71c.19,0,.37.02.56.03.92.8,1.84,1.59,2.76,2.39-.09.2-.25.33-.46.39-1.3-.58-2.29-1.48-2.86-2.8Z"/>
  <path class="cls-1" d="M446.55,94.67c.02-.21.04-.43.05-.64,1.26.64,2.18,1.59,2.76,2.88-.3.15-.58.39-.96.32-.04-1.28-1.23-1.71-1.86-2.56Z"/>
  <path class="cls-1" d="M386.18,283c.49.15.73.55.95.96-.98.42-1.82,1.16-2.92,1.33-.22-.06-.39-.2-.49-.41.75-.72,2.15-.59,2.46-1.88Z"/>
  <path class="cls-1" d="M456.28,100.2c-.41-.01-.82-.04-1.04-.47,1.38-.19,2.38-1.44,3.85-1.4.16.1.22.21.17.31-.05.11-.1.16-.16.16-.94.46-1.88.93-2.82,1.39Z"/>
  <path class="cls-1" d="M38.86,277c-1.22-.6-2.55-.77-3.9-.87,1.37-.58,2.68-.56,3.93.24.2.22.19.43-.03.63Z"/>
  <path class="cls-1" d="M112.25,434.18c-.91.59-1.9.58-2.91.38.47-.47,1.17-.21,1.7-.51.11-.62-.51-.86-.68-1.33.06-.08.12-.15.18-.23.18.08.36.14.55.19.57.36,1,.83,1.17,1.5Z"/>
  <path class="cls-1" d="M104.64,262.89l.46.44c-.79.82-1.58,1.64-2.36,2.46-.22-.1-.35-.27-.41-.5.5-1.07,1.27-1.86,2.31-2.4Z"/>
  <path class="cls-1" d="M127.76,442.75c.14-.18.27-.35.41-.53.62.96,1.37,1.78,2.37,2.35.14.12.19.24.14.35-.05.12-.1.17-.15.17-1.36-.27-2.27-1.07-2.78-2.35Z"/>
  <path class="cls-1" d="M37.04,107.79c-.74.01-1.51.28-2.37-.32,1-.86,1.92-.73,2.89-.18-.03.32-.33.35-.52.5Z"/>
  <path class="cls-1" d="M298.04,444.14c1.27.41,2.59.56,3.89.8-1.46.41-2.89.68-4.1-.58.07-.07.14-.14.21-.22Z"/>
  <path class="cls-1" d="M127.73,105.44c.15-.17.3-.35.45-.52.6,1.02,1.42,1.81,2.45,2.4-.05.3-.32.32-.53.43-1.18-.37-1.93-1.18-2.36-2.31Z"/>
  <path class="cls-1" d="M121.45,98.4c.19.14.38.28.57.42-.93.46-1.87.92-2.8,1.38-.45-.01-.9-.05-1.15-.51,1.27-.06,2.14-1.18,3.39-1.29Z"/>
  <path class="cls-1" d="M436.52,99.65c.96-.62,1.81-1.37,2.47-2.31.42-.08.68-.02.45.49-.68,1.14-1.54,2.04-2.91,2.29-.16-.1-.22-.21-.17-.32.05-.11.1-.16.16-.16Z"/>
  <path class="cls-1" d="M403,117.47c.57-1.02,1.27-1.89,2.43-2.27.23.06.39.19.49.4-.95.65-1.75,1.47-2.45,2.38-.29-.04-.34-.32-.47-.51Z"/>
  <path class="cls-1" d="M68.21,452.47c.17.15.34.29.51.44-.99.63-1.73,1.51-2.44,2.41-.3-.05-.33-.33-.45-.53.56-1.02,1.25-1.9,2.39-2.32Z"/>
  <path class="cls-1" d="M460.99,435.65c1.35.3,2.24,1.15,2.83,2.36-.07.22-.2.37-.42.46-.69-.88-1.49-1.67-2.42-2.3-.15-.12-.2-.24-.15-.35.05-.12.1-.17.15-.17Z"/>
  <path class="cls-1" d="M268.65,268.53c-1.27.67-2.53.41-3.8-.01-.05-.4,0-.69.51-.42,1.09.03,2.18.17,3.25-.16.14.12.2.25.16.39-.04.14-.08.21-.12.21Z"/>
  <path class="cls-1" d="M374.23,107.8c-.75.01-1.52.26-2.4-.33,1.01-.86,1.95-.72,2.92-.17-.03.31-.33.34-.52.49Z"/>
  <path class="cls-1" d="M375.97,276.86c-1.26-.44-2.59-.52-3.88-.81,1.46-.42,2.89-.63,4.11.58-.07.08-.15.15-.22.23Z"/>
  <path class="cls-1" d="M379.02,450.89c.72.89,1.45,1.76,2.4,2.42-.1.2-.26.34-.47.41-1.13-.44-1.86-1.27-2.33-2.36.06-.22.2-.38.4-.48Z"/>
  <path class="cls-1" d="M228.38,290.14c0-.17,0-.33,0-.5,1.38.26,2.63-.12,3.83-.78.16.09.21.19.16.29-.05.1-.1.15-.15.15-1.06,1.32-2.47,1-3.85.83Z"/>
  <path class="cls-1" d="M287.94,269.53c-.52-.17-.58-.59-.59-1.04.74-.87,1.71-1.28,2.82-1.41.49-.17.62.05.51.5-1.1.38-2.57.26-2.74,1.95Z"/>
  <path class="cls-1" d="M293.08,267.27c1.14.43,1.85,1.27,2.32,2.35-.06.22-.19.38-.4.48-.71-.89-1.46-1.75-2.4-2.42.1-.21.25-.34.47-.41Z"/>
  <path class="cls-1" d="M461.95,98.87c1.2.56,1.88,1.57,2.31,2.77-.17.21-.35.22-.54.03-.6-.74-1.21-1.48-1.81-2.23-.13-.14-.17-.27-.11-.4.06-.12.11-.18.16-.18Z"/>
  <path class="cls-1" d="M205.39,107.78c-.62.03-1.26.24-1.97-.32,1.02-.88,1.99-.64,2.98-.14-.21.44-.72.2-1.01.46Z"/>
  <path class="cls-1" d="M297.95,106.64c1.19.92,2.71.58,4.43,1.06-1.81.45-3.17.49-4.46-.33-.2-.25-.19-.49.02-.72Z"/>
  <path class="cls-1" d="M130.09,107.74c.18-.14.36-.28.53-.43.93.04,1.86.08,3.18.14-1.43,1.12-2.6.4-3.72.29Z"/>
  <path class="cls-1" d="M215.44,116.63c0-.18,0-.36,0-.54.85-.39,1.82-.59,2.35-1.49.42.15.78.38.98.8-1.21.13-2.07,1.23-3.34,1.23Z"/>
  <path class="cls-1" d="M276.84,262.81c-.66,0-1.32,0-1.98,0-.17-.16-.46-.18-.49-.48.99-.68,1.98-.68,2.97,0-.04.28-.33.32-.49.47Z"/>
  <path class="cls-1" d="M399.66,458.67c-.99.69-1.99.68-2.97-.01.04-.29.32-.31.49-.47.66,0,1.33,0,1.99,0,.17.15.47.18.49.47Z"/>
  <path class="cls-1" d="M268.65,268.53c-.01-.2-.02-.39-.04-.59.66-.73,1.33-1.47,1.99-2.2.25-.2.49-.18.7.06-.6,1.19-1.37,2.22-2.66,2.74Z"/>
  <path class="cls-1" d="M465.54,442.75c.63.74,1.39,1.33,2.2,1.86.15.11.2.23.15.34-.05.11-.1.17-.15.17-1.36-.27-2.31-1.03-2.8-2.34.19-.22.39-.23.6-.02Z"/>
  <path class="cls-1" d="M383.72,284.89c.16.14.33.27.49.41-1.35.2-2.74.56-3.84-.68-.13-.12-.17-.24-.12-.35.05-.11.1-.16.15-.16,1.01.65,2.12.9,3.32.79Z"/>
  <path class="cls-1" d="M131.07,276.65c-.57-.06-1.11-.18-1.52-.62-.23-.22-.23-.44,0-.66,1.18.74,2.69.12,3.85.92-.72.5-1.59,0-2.33.36Z"/>
  <path class="cls-1" d="M290.31,436.12c-.17-.14-.33-.27-.5-.41,1.35-.21,2.74-.57,3.83.68.14.12.18.24.12.35-.05.11-.1.16-.15.16-1.02-.62-2.11-.92-3.3-.78Z"/>
  <path class="cls-1" d="M206.29,275.89c1.36.27,2.31,1.02,2.8,2.33-.19.22-.39.23-.6.02-.64-.73-1.39-1.33-2.2-1.86-.15-.11-.2-.22-.15-.33.05-.11.1-.16.15-.16Z"/>
  <path class="cls-1" d="M210.87,282.95c.72.63,1.45,1.26,2.17,1.89.15.11.2.23.15.34-.05.11-.1.17-.16.17-1.34-.29-2.22-1.15-2.81-2.34.2-.24.41-.25.64-.04Z"/>
  <path class="cls-1" d="M287.77,100.67c-.48-.3-1.1-.43-1.33-1.05,1.3.35,2.07-1.11,3.3-.98.14.1.18.21.14.31-.04.11-.08.16-.13.16-.74.42-1.67.59-1.99,1.55Z"/>
  <path class="cls-1" d="M402.97,287.34c-.59.99-1.33,1.83-2.43,2.29-.14-.12-.19-.25-.15-.38.04-.13.09-.19.13-.19.66-.73,1.32-1.46,1.97-2.2.43-.1.67-.03.47.48Z"/>
  <path class="cls-1" d="M62.38,289.62c0,.17.01.34.02.51-1.38.19-2.78.51-3.86-.78-.15-.11-.19-.22-.14-.32.05-.1.11-.15.16-.15,1.18.73,2.45,1.01,3.82.74Z"/>
  <path class="cls-1" d="M273.47,431.37c0,.21.02.42.03.63-.66.72-1.33,1.43-1.99,2.15-.25.2-.49.18-.71-.05.58-1.21,1.45-2.14,2.67-2.72Z"/>
  <path class="cls-1" d="M123.8,435.64c0,.17-.02.35-.03.52-1.37-.21-2.59.27-3.82.78-.26-.17-.27-.36-.05-.57,1.17-.95,2.5-.99,3.89-.73Z"/>
  <path class="cls-1" d="M294.52,99.73c-.15.16-.3.33-.46.49-.64-.44-1.28-.89-1.93-1.33-.24-.2-.23-.39.01-.58,1.03.06,1.75.66,2.37,1.42Z"/>
  <path class="cls-1" d="M405.91,115.6c-.16-.13-.33-.27-.49-.4,1.29-.3,2.58-.52,3.81.24.15.11.19.22.13.32-.06.09-.11.14-.17.14-1.07-.37-2.17-.4-3.29-.3Z"/>
  <path class="cls-1" d="M464.96,274.32c.14-.18.29-.35.43-.53.53.76,1.16,1.42,1.92,1.97-.11.21-.27.36-.5.43-.93-.31-1.51-.96-1.85-1.86Z"/>
  <path class="cls-1" d="M127.75,272.29c.42.87.83,1.74,1.25,2.6-.06.19-.19.32-.38.4-.86-.57-1.07-1.5-1.34-2.41.11-.23.14-.54.47-.6Z"/>
  <path class="cls-1" d="M209.07,446.68c-.15.18-.29.35-.44.53-.53-.76-1.17-1.41-1.92-1.96.11-.22.28-.36.5-.43.93.31,1.51.96,1.85,1.86Z"/>
  <path class="cls-1" d="M100.27,268.51c-.19-.15-.39-.31-.58-.46.68-.61,1.37-1.23,2.05-1.84.21.09.36.25.44.46-.39.87-1.04,1.47-1.91,1.84Z"/>
  <path class="cls-1" d="M465.59,106.45c-.81-.61-1.06-1.49-1.19-2.43.17-.22.34-.23.52-.01.45.81.9,1.62,1.35,2.44,0,0-.05.16-.05.16-.22-.03-.43-.08-.63-.15Z"/>
  <path class="cls-1" d="M273.21,94.36c.26.03.51.07.77.1-.73.66-1.46,1.31-2.19,1.97-.25.21-.48.19-.68-.07.48-.9,1.12-1.63,2.1-2Z"/>
  <path class="cls-1" d="M111.74,264.83c-.12.13-.25.25-.37.38-.65-.63-1.31-1.25-1.96-1.88.09-.21.25-.36.47-.45.86.42,1.53,1.02,1.86,1.94Z"/>
  <path class="cls-1" d="M125.75,268.1c.63.54,1.1,1.18,1.35,1.98-.08.21-.23.37-.44.47-.48-.65-.95-1.29-1.43-1.94,0,0,.04-.19.04-.2.07-.12.16-.22.28-.29,0,0,.2-.03.2-.03Z"/>
  <path class="cls-1" d="M99.76,100.06c-1.13.21-2.27.48-3.31-.29-.17-.1-.22-.21-.16-.3.06-.09.12-.14.18-.14.92.26,1.85.4,2.81.33.46-.23.56-.01.49.4Z"/>
  <path class="cls-1" d="M209.23,278.63c.67.7.53,1.67.84,2.49-.14.19-.17.49-.48.53-.62-.73-.51-1.7-.8-2.54.08-.22.24-.38.44-.49Z"/>
  <path class="cls-1" d="M42.79,284.37c-.75-.42-1.13-1.12-1.45-1.86.13-.2.18-.48.48-.52.48.65.95,1.29,1.43,1.94,0,0-.05.23-.05.23-.15.05-.29.12-.41.22Z"/>
  <path class="cls-1" d="M402.97,287.34c-.16-.16-.31-.32-.47-.48.36-.74.75-1.47,1.48-1.93,0,0,.17.09.18.09.04.13.11.24.19.35-.34.74-.8,1.39-1.37,1.97Z"/>
  <path class="cls-1" d="M396.75,290.1c0-.19.01-.38.02-.56,1.13.29,2.24.21,3.33-.22.13.1.18.19.13.29-.04.1-.09.14-.13.14-1.03.88-2.2.54-3.34.36Z"/>
  <path class="cls-1" d="M440.86,432.28c.47-.74,1.17-1.13,1.98-1.36.23.07.39.21.49.43-.68.43-1.36.87-2.04,1.3-.11-.09-.22-.15-.35-.18,0,0-.08-.18-.08-.18Z"/>
  <path class="cls-1" d="M102.26,435.16c-.15-.16-.3-.33-.45-.49.35-.72.71-1.44,1.41-1.89.18.09.31.22.41.4-.36.73-.78,1.42-1.38,1.99Z"/>
  <path class="cls-1" d="M464.44,439.34c.62.73.51,1.7.8,2.54-.09.22-.23.38-.44.49-.67-.7-.53-1.67-.84-2.49.14-.19.17-.49.48-.53Z"/>
  <path class="cls-1" d="M439.45,97.83c-.15-.16-.3-.33-.45-.49.35-.72.7-1.45,1.42-1.89.1.09.22.16.36.19,0,0,.08.19.08.19-.38.73-.82,1.42-1.41,2Z"/>
  <path class="cls-1" d="M213.48,453.39c.5,0,1,0,1.49.01.18.16.47.18.52.48-.85.6-1.71.58-2.57.02.06-.31.37-.34.56-.51Z"/>
  <path class="cls-1" d="M402,457.17c-.51.66-1.14,1.15-1.95,1.39-.21-.09-.37-.24-.47-.44.65-.47,1.3-.94,1.95-1.42,0,0,.17.11.17.11.06.06.13.13.19.19l.11.16Z"/>
  <path class="cls-1" d="M461.95,98.87c-.02.19-.03.39-.05.58-.91-.34-1.8-.71-2.8-.64,0-.16,0-.32-.01-.48,1.03-.2,2-.15,2.86.54Z"/>
  <path class="cls-1" d="M209.14,111.29c-.5-.66-.7-1.44-.94-2.2-.04-.18-.1-.36-.19-.52.06-.07.13-.13.2-.2.82.61,1.13,1.49,1.34,2.43-.07.22-.21.39-.41.5Z"/>
  <path class="cls-1" d="M210.19,113.09c.45.67.89,1.34,1.34,2.01-.1.17-.23.31-.4.41-.73-.45-1.11-1.15-1.37-1.94.08-.22.22-.38.43-.48Z"/>
  <path class="cls-1" d="M225.11,118.84c.12-.13.23-.26.35-.38.5.56.99,1.11,1.49,1.67.22.21.22.42,0,.63-.89-.38-1.5-1.02-1.84-1.92Z"/>
  <path class="cls-1" d="M397.18,120.92c-.19.16-.38.31-.58.47-.81-.15-1.39-.64-1.85-1.29-.15-.25-.13-.49.06-.71.8.5,1.43,1.26,2.37,1.54Z"/>
  <path class="cls-1" d="M272.03,263.82c.52-.64,1.14-1.14,1.95-1.38.21.09.37.24.47.44-.64.48-1.29.95-1.93,1.43,0,0-.19-.04-.19-.04-.11-.07-.2-.16-.27-.27,0,0-.04-.19-.04-.19Z"/>
  <path class="cls-1" d="M290.68,267.58c-.17-.17-.34-.33-.51-.5.85-.58,1.69-.54,2.51.06-.04.28-.33.31-.49.48-.5-.01-1-.03-1.51-.04Z"/>
  <path class="cls-1" d="M458.54,267.11c.85-.59,1.71-.57,2.57-.02-.06.3-.37.34-.56.51-.5,0-.99,0-1.49,0-.18-.16-.47-.19-.52-.48Z"/>
  <path class="cls-1" d="M458.54,267.11c.17.16.35.32.52.48-.79.31-1.59.61-2.38.92-.16-.1-.22-.21-.17-.32.05-.11.1-.17.16-.17.48-.59,1.14-.84,1.88-.92Z"/>
  <path class="cls-1" d="M270.8,434.09c.24.02.47.04.71.05-.36.74-.74,1.47-1.47,1.92,0,0-.17-.09-.17-.09-.04-.12-.1-.23-.16-.34.23-.61.63-1.1,1.1-1.54Z"/>
  <path class="cls-1" d="M99.76,100.06c-.16-.13-.32-.27-.49-.4.66-.47,1.32-.94,1.98-1.4.02.25.05.51.07.76-.39.55-.88.93-1.56,1.04Z"/>
  <path class="cls-1" d="M108.35,431.35c.18-.14.35-.28.53-.42.64.16,1.16.48,1.52,1.05.07.21.11.42.12.64,0,0-.16.11-.16.11-.67-.46-1.34-.92-2.01-1.38Z"/>
  <path class="cls-1" d="M215.49,453.89c-.17-.16-.35-.32-.52-.48.79-.3,1.59-.61,2.38-.91.16.1.21.21.17.32-.05.11-.1.17-.15.17-.49.59-1.14.83-1.88.91Z"/>
  <path class="cls-1" d="M205.39,107.78c.24-.36.64-.37,1.01-.46.75.08,1.36.43,1.81,1.04,0,0-.13.1-.13.1-.19,0-.38-.02-.57-.08-.71-.2-1.41-.4-2.12-.6Z"/>
  <path class="cls-1" d="M86.8,290.55c.1.44.15.91.63,1.15-.26.59-.71.97-1.45,1.34.2-.98.26-1.81.82-2.49Z"/>
  <path class="cls-1" d="M265.8,100.15c-.77-.01-1.45-.19-2.16-1.22,1,.15,1.64.17,2.16.68.15.12.2.24.15.36-.05.12-.1.18-.16.18Z"/>
  <path class="cls-1" d="M267.56,413.61c.5-.25.6-.73.71-1.22.57.67.54,1.51.88,2.38-.84-.24-1.27-.64-1.59-1.17Z"/>
  <path class="cls-1" d="M265.8,100.15c0-.18,0-.36,0-.53.98.11,1.94.04,2.87-.31.16.1.22.19.16.29-.05.1-.11.14-.16.14-.86.83-1.88.48-2.87.42Z"/>
  <path class="cls-1" d="M457.08,436.92c-.13-.12-.26-.24-.38-.35.47-.66,1.16-.87,1.92-.92.15.12.2.24.15.37-.05.13-.1.19-.15.19-.42.45-.98.59-1.55.72Z"/>
  <path class="cls-1" d="M436.52,99.65c0,.16,0,.32,0,.48-.99.12-2,.37-2.89-.34-.15-.11-.2-.21-.14-.3.06-.09.11-.14.16-.14.93.3,1.89.35,2.86.3Z"/>
  <path class="cls-1" d="M271.31,265.79c-.23-.02-.47-.04-.7-.06.33-.75.79-1.39,1.42-1.92l.12.15c.07.07.14.14.21.21l.17.13c-.4.49-.81.99-1.21,1.48Z"/>
  <path class="cls-1" d="M65.8,287.38c-.15-.17-.29-.33-.44-.5.25-.6.58-1.13,1.13-1.49.17-.04.34-.11.5-.19.07.06.14.11.21.17-.47.67-.93,1.34-1.4,2.01Z"/>
  <path class="cls-1" d="M122.32,267.57c-.24-.35-.63-.37-.99-.45.85-.55,1.71-.62,2.57-.03-.05.31-.35.34-.54.5-.35,0-.69-.01-1.04-.02Z"/>
  <path class="cls-1" d="M406.46,307.38c-.5.25-.6.73-.7,1.21-.51-.64-.62-1.41-.76-2.26.76.08,1.12.55,1.46,1.06Z"/>
  <path class="cls-1" d="M216.95,284.08c.13.12.26.24.39.35-.48.66-1.16.89-1.93.92-.15-.12-.21-.24-.16-.36.05-.12.1-.18.15-.18.41-.48.98-.59,1.55-.73Z"/>
  <path class="cls-1" d="M130.54,445.1c0-.18,0-.35,0-.53.95.2,1.97-.07,3.13.39-1.19.47-2.17.31-3.14.14Z"/>
  <path class="cls-1" d="M65.82,454.79c.15.18.3.35.45.53-.25.51-.47,1.05-1.01,1.34-.18-.08-.31-.21-.38-.4.31-.49.62-.98.94-1.47Z"/>
  <path class="cls-1" d="M127.75,272.29c-.16.2-.31.4-.47.6-.17-.64-.33-1.28-.5-1.92.07-.22.2-.37.4-.48.55.49.52,1.15.56,1.8Z"/>
  <path class="cls-1" d="M69.14,283.57c.83-.09,1.68-.35,2.41.32.15.1.2.2.15.29-.05.09-.11.14-.16.14-.8-.09-1.59-.17-2.39-.26-.14-.11-.18-.22-.14-.33.04-.11.09-.17.13-.17Z"/>
  <path class="cls-1" d="M457.67,132.34c.31.16.63.33.94.49.04.51-.13.92-.7,1.29-.38-.6-.32-1.18-.24-1.77Z"/>
  <path class="cls-1" d="M66,117.4c.23.02.46.04.69.06-.36.72-.74,1.43-1.39,1.95-.19-.24-.21-.5-.05-.76.04-.54.37-.9.75-1.24Z"/>
  <path class="cls-1" d="M42.21,452.41c.25-.03.5-.06.76-.09.43.32.86.65,1.28.97-.11.21-.27.35-.5.42-.7-.21-1.2-.66-1.54-1.3Z"/>
  <path class="cls-1" d="M443.33,431.34c-.16-.14-.33-.29-.49-.43.93-.28,1.86-.27,2.8-.06,0,.17,0,.33,0,.5-.77,0-1.53,0-2.3-.01Z"/>
  <path class="cls-1" d="M231.25,121.31c-.72.57-1.53.57-2.36.38-.05-.4,0-.69.5-.42.62-.16,1.24-.31,1.85-.47l.03.15.13.19-.16.17Z"/>
  <path class="cls-1" d="M403,117.47c.16.17.31.34.47.51-.25.52-.47,1.05-1.01,1.35-.18-.08-.31-.21-.38-.39.31-.49.62-.98.92-1.47Z"/>
  <path class="cls-1" d="M229.39,121.27c-.17.14-.34.28-.5.42-.58-.06-1.12-.22-1.5-.71-.12-.12-.15-.25-.11-.37.04-.12.08-.18.12-.18.67.28,1.33.56,2,.85Z"/>
  <path class="cls-1" d="M213.48,453.39c-.19.17-.37.34-.56.51-.59-.04-1.05-.31-1.36-.82-.04-.18-.1-.35-.19-.52.07-.06.14-.12.21-.18.63.35,1.15.89,1.9,1Z"/>
  <path class="cls-1" d="M297.95,106.64c0,.24-.02.48-.02.72-.7-.24-1.13-.76-1.41-1.42.13-.21.17-.5.48-.55.32.42.63.83.95,1.25Z"/>
  <path class="cls-1" d="M206.29,275.89c0,.16,0,.33,0,.49-.89-.13-1.83.1-2.85-.32,1.05-.52,1.95-.31,2.86-.17Z"/>
  <path class="cls-1" d="M292.15,98.31c0,.19,0,.38-.01.58-.82-.18-1.59.06-2.38.23,0-.16-.01-.32-.02-.48.73-.65,1.58-.38,2.41-.33Z"/>
  <path class="cls-1" d="M210.04,451.16c.05-.27.09-.53.14-.8.46.68.93,1.35,1.39,2.03,0,0-.12.13-.12.13-.2,0-.39-.05-.57-.11-.48-.28-.78-.69-.84-1.25Z"/>
  <path class="cls-1" d="M460.54,267.6c.19-.17.37-.34.56-.51.6.04,1.06.31,1.37.83.04.17.11.34.19.5-.07.06-.14.11-.21.17-.63-.35-1.16-.87-1.9-1Z"/>
  <path class="cls-1" d="M467.73,445.11c0-.17,0-.33,0-.5.89.15,1.83-.11,2.81.36-1,.48-1.91.28-2.81.14Z"/>
  <path class="cls-1" d="M378.98,113.63c-.12.15-.24.3-.36.44-.39-.54-.7-1.11-.66-1.81.14-.17.28-.34.42-.51.2.62.4,1.25.6,1.87Z"/>
  <path class="cls-1" d="M463.98,269.84c-.05.26-.09.53-.14.79-.46-.68-.93-1.35-1.39-2.03l.12-.12c.19,0,.38.04.56.1.49.28.79.69.85,1.26Z"/>
  <path class="cls-1" d="M458.63,436.2c0-.19,0-.37,0-.56.79-.15,1.58-.16,2.36,0,0,.17,0,.35,0,.53-.78,0-1.57.02-2.35.02Z"/>
  <path class="cls-1" d="M216.34,82.45c-.28-.15-.57-.3-.85-.45.04-.47.22-1.15.65-.99.51.19.27.92.2,1.43Z"/>
  <path class="cls-1" d="M96.92,436.67c-.17.13-.34.26-.51.4-.15-.01-.3,0-.44-.04-.31-.07-.65-.25-.58-.56.09-.38.43-.22.7-.11.27.11.56.21.83.31Z"/>
  <path class="cls-1" d="M237.51,306.98c-.46.19-.44.64-.54,1.02-.13-.19-.3-.37-.38-.58-.13-.36-.29-.88.07-1.05.38-.18.68.23.84.61Z"/>
  <path class="cls-1" d="M423.54,460.02c.11.34.06.76.48.95-.13.37-.32.79-.76.66-.27-.08-.24-.54-.15-.82.09-.28.28-.52.43-.78Z"/>
  <path class="cls-1" d="M255.2,459.54c.08.4.11.83.55,1.04-.16.36-.37.8-.78.71-.51-.12-.27-.63-.19-.95.06-.28.27-.53.42-.8Z"/>
  <path class="cls-1" d="M44.75,284.86c-.18.15-.35.3-.53.45-.43-.07-.8-.26-1.02-.66-.12-.17-.14-.35-.06-.55,0,0,.11-.18.11-.18.5.31,1,.62,1.5.94Z"/>
  <path class="cls-1" d="M281.13,97.31c-.37-.02-.74-.05-1.12-.07-.14-.43-.28-.85-.41-1.28.07-.06.14-.13.21-.19.64.34.95.97,1.32,1.54Z"/>
  <path class="cls-1" d="M271.11,96.36c.23.02.45.04.68.07-.24.53-.48,1.06-.98,1.4-.21.21-.41.21-.62,0,.31-.49.61-.97.92-1.46Z"/>
  <path class="cls-1" d="M234.55,455.74c-.22-.02-.44-.04-.66-.07.24-.54.47-1.08,1.01-1.4.2-.22.4-.22.6,0-.31.49-.63.97-.94,1.46Z"/>
  <path class="cls-1" d="M40.88,279.63c.5.36.44.89.46,1.41.28.5,0,.53-.39.49-.16-.63-.33-1.25-.49-1.88.14-.23.28-.23.43-.01Z"/>
  <path class="cls-1" d="M234.56,286.11c.03.28.06.55.09.83-.23.52-.47,1.03-1.02,1.3-.14-.23-.14-.46,0-.69.08-.63.49-1.05.94-1.44Z"/>
  <path class="cls-1" d="M209.59,281.66c.16-.18.32-.36.48-.53.27.61.53,1.22.8,1.82-.21.02-.43.03-.64.04-.31-.4-.6-.81-.64-1.34Z"/>
  <path class="cls-1" d="M464.92,104.01c-.17,0-.35,0-.52.01-.16-.64-.33-1.27-.49-1.91.15-.16.3-.17.45,0,.46.55.55,1.22.56,1.9Z"/>
  <path class="cls-1" d="M239.93,284.34c.17-.15.35-.29.52-.44.15.02.31.03.45.06.31.08.68.26.61.57-.09.39-.45.21-.72.1-.29-.11-.58-.2-.87-.3Z"/>
  <path class="cls-1" d="M69.14,283.57c0,.17,0,.33,0,.5-.4.44-.96.58-1.47.81-.11-.12-.15-.25-.11-.37.03-.13.07-.19.1-.19.35-.53.89-.69,1.48-.75Z"/>
  <path class="cls-1" d="M250.49,260.98c-.12-.34-.07-.77-.49-.95.14-.37.33-.79.77-.65.27.09.24.54.15.82-.09.28-.28.52-.42.78Z"/>
  <path class="cls-1" d="M65.25,118.64c.02.25.03.51.05.76-.19.44-.52.74-.94.95-.16-.14-.31-.27-.47-.41.45-.43.91-.87,1.36-1.3Z"/>
  <path class="cls-1" d="M216.31,250.88c-.29,0-.58-.01-.88-.02,0-.08-.02-.16,0-.24.06-.41.23-.97.61-.89.62.12.29.73.28,1.15Z"/>
  <path class="cls-1" d="M38.86,277c0-.21.02-.42.03-.63.69.23,1.14.68,1.36,1.38-.2.21-.4.21-.61,0-.26-.25-.52-.5-.78-.75Z"/>
  <path class="cls-1" d="M215.4,284.81c0,.18,0,.36,0,.55-.79.13-1.58.15-2.37-.02,0-.17,0-.34,0-.5.78,0,1.57-.02,2.35-.02Z"/>
  <path class="cls-1" d="M216.31,419.31c-.28,0-.56,0-.84,0,0-.08-.02-.16-.01-.23.06-.39.23-.93.58-.86.61.11.29.69.27,1.1Z"/>
  <path class="cls-1" d="M464.44,439.34c-.16.18-.32.36-.48.53-.19-.46-.37-.93-.56-1.39.14-.15.28-.31.42-.46.29.4.59.8.62,1.32Z"/>
  <path class="cls-1" d="M394.81,119.38c-.02.24-.04.48-.06.71-.59-.45-1.17-.91-1.34-1.69.18,0,.36,0,.54.01.45.17.64.58.86.96Z"/>
  <path class="cls-1" d="M131.07,276.65c.7-.61,1.55-.22,2.33-.36-.66.87-1.53.37-2.33.36Z"/>
  <path class="cls-1" d="M119.91,436.37c.02.19.03.38.05.57-.28.2-.55.39-.83.59-.44-.02-.86-.08-1.07-.55.71.08,1.2-.5,1.84-.62Z"/>
  <path class="cls-1" d="M209.14,111.29c.14-.17.28-.33.41-.5.16.63.32,1.25.48,1.88-.14.22-.28.24-.44.02-.49-.36-.43-.89-.45-1.4Z"/>
  <path class="cls-1" d="M457.71,470.11c.29,0,.59.01.88.02,0,.08.02.16,0,.24-.06.41-.22.96-.61.89-.63-.12-.29-.73-.28-1.15Z"/>
  <path class="cls-1" d="M269.12,98.99c.16-.34.4-.6.76-.74.22-.18.43-.18.65,0-.25.69-.71,1.15-1.41,1.37-.15-.22-.14-.43,0-.64Z"/>
  <path class="cls-1" d="M440.32,433.66c-.18,0-.37-.01-.55-.02.17-.61.6-1.01,1.09-1.37-.05.08-.05.15,0,.23,0,.1.02.2.02.3-.19.28-.38.57-.57.85Z"/>
  <path class="cls-1" d="M102.18,266.67c-.15-.15-.29-.31-.44-.46.2-.31.39-.61.59-.92.14.17.27.33.41.5-.19.29-.37.59-.56.88Z"/>
  <path class="cls-1" d="M265.3,436.65c0,.15,0,.29-.01.44-.08,0-.16.02-.23,0-.41-.1-1.13.02-.95-.64.13-.45.63.1.98.1.07,0,.14.06.22.09Z"/>
  <path class="cls-1" d="M39.4,446.1c0-.21.01-.42.02-.63.59.38.99.89,1.08,1.6-.16.19-.32.19-.48,0-.21-.33-.41-.65-.62-.98Z"/>
  <path class="cls-1" d="M40.02,447.09c.16,0,.32,0,.48,0,.37.2.36.56.38.91-.14.17-.28.34-.42.52-.15-.47-.3-.94-.44-1.41Z"/>
  <path class="cls-1" d="M40.88,279.63c-.14,0-.29,0-.43.01-.17-.48-.34-.96-.51-1.44.14-.19.28-.18.41,0,.54.34.54.88.52,1.42Z"/>
  <path class="cls-1" d="M99.8,77.21c.17-.18.34-.35.52-.53.33.26.64.68.3.98-.39.36-.66-.08-.82-.45Z"/>
  <path class="cls-1" d="M419.33,91.57c-.18-.16-.35-.32-.53-.48.1-.39.42-.81.72-.61.46.31.18.77-.19,1.09Z"/>
  <path class="cls-1" d="M250.53,92.12c-.2-.19-.4-.39-.6-.58.13-.36.45-.86.72-.69.58.37.25.87-.12,1.27Z"/>
  <path class="cls-1" d="M377.55,278.19c-.12.15-.25.3-.37.44-.23-.45-.46-.9-.69-1.35.13-.2.27-.22.42-.03.32.24.58.52.64.94Z"/>
  <path class="cls-1" d="M99.22,245.19c.24-.24.47-.47.71-.71.05.05.12.1.15.16.23.39.49.95.09,1.19-.41.25-.73-.27-.96-.64Z"/>
  <path class="cls-1" d="M237.6,138.48c-.22.22-.45.44-.67.66-.36-.35-.66-.89-.3-1.21.49-.43.72.22.98.55Z"/>
  <path class="cls-1" d="M40.94,281.52c.13-.16.26-.32.39-.49.29.25.44.57.48.95-.16.17-.32.35-.48.52-.13-.33-.26-.66-.4-.99Z"/>
  <path class="cls-1" d="M436.53,414.01c.42-.21.43-.63.52-1.01.44.4.49.94.54,1.48-.19.2-.4.23-.63.06l-.43-.54Z"/>
  <path class="cls-1" d="M46.53,116.87c-.61.14-1.21.14-1.81,0-.05-.11-.1-.22-.16-.33.09-.08.19-.15.28-.23.59.02,1.21-.24,1.74.21l-.02-.02c.12.1.16.18.1.26-.05.07-.1.11-.14.11Z"/>
  <path class="cls-1" d="M408.6,452.93c.19-.16.39-.32.58-.49.4.14,1.07.32.77.75-.33.48-.92.03-1.35-.27Z"/>
  <path class="cls-1" d="M82.16,428.9c-.18-.16-.36-.32-.55-.48.11-.38.41-.84.72-.63.46.31.19.78-.18,1.11Z"/>
  <path class="cls-1" d="M419.31,428.88c-.18-.17-.35-.34-.53-.51.1-.39.45-.81.74-.59.45.32.16.79-.21,1.11Z"/>
  <path class="cls-1" d="M250.49,429.42c-.19-.19-.38-.38-.58-.57.13-.37.47-.86.72-.7.59.38.2.87-.15,1.27Z"/>
  <path class="cls-1" d="M405.84,138.1c-.2.18-.39.35-.59.53-.36-.33-.64-.79-.18-1.11.31-.21.63.21.77.58Z"/>
  <path class="cls-1" d="M68.67,138.05c-.19.18-.38.37-.56.55-.36-.32-.67-.77-.22-1.11.29-.22.64.18.78.56Z"/>
  <path class="cls-1" d="M268.15,245.62c.2-.19.39-.38.59-.56.37.33.66.8.21,1.14-.3.22-.65-.2-.8-.58Z"/>
  <path class="cls-1" d="M436.49,76.73c.22-.21.44-.43.66-.64.36.34.63.87.28,1.17-.49.43-.69-.21-.94-.53Z"/>
  <path class="cls-1" d="M433.66,99.35c0,.15-.01.29-.02.44-.22-.02-.45-.02-.67-.07-.22-.05-.53-.15-.46-.4.11-.43.47-.19.74-.14.15.02.28.11.42.17Z"/>
  <path class="cls-1" d="M36.95,444.33c-.61.52-1.22.52-1.84.02.61-.17,1.22-.15,1.84-.02Z"/>
  <path class="cls-1" d="M297.01,105.39c-.16.18-.32.37-.48.55-.14-.33-.28-.66-.43-.99.08-.23.22-.39.43-.5.3.24.44.57.47.94Z"/>
  <path class="cls-1" d="M46.59,116.52h-1.93c-.12-.1-.17-.19-.13-.28.03-.1.07-.15.11-.15.66,0,1.32-.01,1.97-.02-.02.15-.03.3-.02.44Z"/>
  <path class="cls-1" d="M71.53,284.33c0-.14.01-.29.02-.43.29.03.6.02.87.12.17.06.43.32.41.43-.11.45-.43.19-.67.11-.21-.06-.42-.15-.63-.23Z"/>
  <path class="cls-1" d="M433.66,436.58c0,.17-.01.34-.02.51-.23-.04-.49-.02-.69-.13-.19-.1-.48-.36-.45-.47.13-.45.46-.22.73-.12.15.06.28.14.42.21Z"/>
  <path class="cls-1" d="M265.36,268.1c-.17.14-.34.28-.51.42-.38-.09-1-.3-.82-.6.4-.67.9-.07,1.33.19Z"/>
  <path class="cls-1" d="M109.88,262.89c-.16.15-.31.3-.47.45-.32-.17-.64-.35-.96-.52,0-.17.02-.34.02-.51.57-.05.98.26,1.4.58Z"/>
  <path class="cls-1" d="M86.3,460.48c.19.18.38.35.57.53-.11.4-.46.87-.75.66-.44-.31-.2-.83.18-1.18Z"/>
  <path class="cls-1" d="M254.72,292.11c.18.18.35.35.53.53-.11.39-.46.8-.75.58-.44-.33-.14-.79.22-1.11Z"/>
  <path class="cls-1" d="M68.69,475.33c-.19.19-.37.39-.56.58-.36-.33-.68-.79-.24-1.14.28-.22.66.17.8.56Z"/>
  <path class="cls-1" d="M405.87,475.38c-.2.19-.39.37-.59.56-.37-.33-.66-.8-.21-1.14.3-.22.65.2.79.58Z"/>
  <path class="cls-1" d="M423.54,291.59c.2.19.39.39.59.58-.22.33-.4.98-.88.58-.36-.29-.04-.83.3-1.16Z"/>
  <path class="cls-1" d="M125.02,267.62c.36-.02.56.2.73.48,0,0-.15.15-.15.15-.07.07-.15.15-.22.22l-.15.14c-.35-.29-.71-.59-1.06-.88.25-.27.54-.31.85-.12Z"/>
  <path class="cls-1" d="M408.73,284.35c0-.15,0-.3.01-.46.08,0,.16-.02.23,0,.41.1,1.14,0,.95.65-.13.45-.63-.1-.98-.1-.07,0-.14-.06-.22-.09Z"/>
  <path class="cls-1" d="M86.32,123.17c.19.19.39.37.58.56-.13.4-.5.86-.79.65-.43-.33-.17-.85.21-1.21Z"/>
  <path class="cls-1" d="M296.53,104.44c-.14.17-.29.33-.43.5-.05-.28-.1-.56-.15-.84.14-.17.27-.34.41-.51.06.28.12.57.17.85Z"/>
  <path class="cls-1" d="M96.46,99.33c0,.15,0,.29-.02.44-.36-.02-.95.02-.87-.41.1-.53.57-.14.88-.03Z"/>
  <path class="cls-1" d="M125.02,267.62c-.28.04-.57.08-.85.11-.27-.05-.54-.1-.81-.15.18-.17.36-.33.54-.5.45.03.83.18,1.12.54Z"/>
  <path class="cls-1" d="M438.95,266.22c.17,0,.35,0,.52,0-.09.41-.36.69-.68.94-.16.19-.3.17-.43-.03.04-.4.28-.68.59-.92Z"/>
  <path class="cls-1" d="M82.16,259.97c-.2-.01-.4-.02-.6-.03.1-.39.36-.78.74-.64.34.13.18.49-.14.67Z"/>
  <path class="cls-1" d="M456.66,268.03c0,.16,0,.32.01.48-.15.19-.3.38-.44.58-.17-.18-.35-.37-.52-.55.24-.32.57-.45.95-.51Z"/>
  <path class="cls-1" d="M374.23,107.8c.17-.16.35-.33.52-.49.28.07.56.13.83.2-.16.13-.33.27-.49.4-.29-.04-.57-.07-.86-.11Z"/>
  <path class="cls-1" d="M58.1,289.09c-.41-.14-.68-.41-.83-.82.14-.14.28-.15.43-.02.27,0,.41.12.43.39.12.11.15.21.1.31-.05.09-.09.14-.13.14Z"/>
  <path class="cls-1" d="M37.04,107.79c.17-.17.35-.33.52-.5.29.07.57.14.86.21-.01.19-.02.39-.03.58-.45-.1-.9-.19-1.34-.29Z"/>
  <path class="cls-1" d="M217.37,452.98c0-.16-.01-.32-.02-.49.15-.2.3-.39.45-.59.17.19.34.38.51.57-.23.33-.58.44-.95.51Z"/>
  <path class="cls-1" d="M44.63,116.09c.02.14.02.28.02.42,0,0,.01-.02.01-.02-.16.18-.34.2-.55.09-.15-.01-.29-.07-.4-.17,0-.2.02-.4.03-.6.29.09.59.19.88.28Z"/>
  <path class="cls-1" d="M209.6,112.69c.15,0,.29-.02.44-.02.1.12.15.26.16.42-.14.16-.29.32-.43.48-.05-.3-.11-.59-.16-.89Z"/>
  <path class="cls-1" d="M274.45,262.88c-.16-.15-.32-.29-.47-.44.12-.08.25-.11.39-.11.16.16.33.32.49.48-.13.05-.27.08-.41.08Z"/>
  <path class="cls-1" d="M233.62,287.55c0,.23,0,.46,0,.69-.09.23-.23.39-.48.42-.1-.1-.14-.21-.11-.32.03-.11.06-.17.09-.17.16-.21.33-.42.49-.63Z"/>
  <path class="cls-1" d="M269.18,436.71c0-.17-.02-.34-.02-.52.08-.14.21-.19.37-.16.11,0,.22.01.32.02,0,0,.19.01.19.01-.2.33-.49.54-.86.65Z"/>
  <path class="cls-1" d="M207.22,444.82c-.17.14-.34.28-.5.43-.14,0-.28-.04-.4-.11,0-.17.01-.33.02-.5.3.06.59.13.89.19Z"/>
  <path class="cls-1" d="M466.81,276.18c.17-.14.34-.28.5-.43.15,0,.28.04.4.12,0,.17-.02.34-.03.51-.29-.07-.59-.13-.88-.2Z"/>
  <path class="cls-1" d="M379.02,450.89c-.13.16-.27.32-.4.48-.1-.11-.15-.24-.14-.39.14-.16.27-.32.41-.48.09.11.14.24.14.39Z"/>
  <path class="cls-1" d="M294.53,437.1c-.13.13-.25.25-.38.38-.12-.07-.16-.18-.12-.31-.11-.11-.14-.22-.09-.32.05-.09.09-.14.14-.14l.45.39Z"/>
  <path class="cls-1" d="M438.36,267.13c.14.01.29.02.43.03-.13.15-.25.31-.38.46-.13-.12-.26-.24-.39-.36.08-.13.19-.17.34-.13Z"/>
  <path class="cls-1" d="M404.85,284.3c0,.17.01.35.02.52-.09.13-.21.18-.36.15-.09-.01-.19-.02-.28-.03l-.12-.04s-.12.04-.12.04c.21-.32.5-.53.87-.63Z"/>
  <path class="cls-1" d="M292.19,267.62c.16-.16.33-.32.49-.48.15,0,.28.04.4.13-.16.14-.32.27-.47.41-.14,0-.28-.02-.42-.06Z"/>
  <path class="cls-1" d="M67.66,284.32c0,.19,0,.37,0,.56-.16.16-.31.32-.47.48,0,0-.01-.22-.01-.22l-.13-.17.09-.19c.06-.27.26-.4.5-.47Z"/>
  <path class="cls-1" d="M464.8,442.36c.15-.16.3-.33.44-.49.1.29.2.58.3.87-.2,0-.4.01-.6.02-.1-.12-.14-.25-.14-.41Z"/>
  <path class="cls-1" d="M409.2,115.9c0-.15.02-.31.04-.46.32.02.81.1.76.37-.06.34-.5.22-.79.09Z"/>
  <path class="cls-1" d="M128.62,275.3c.13-.13.25-.27.38-.4.12.09.15.2.12.34.12.1.15.2.11.29-.05.09-.09.13-.14.13-.15-.12-.31-.24-.46-.36Z"/>
  <path class="cls-1" d="M297,443.68c.12-.13.24-.25.36-.38.12.09.16.2.12.35.13.16.12.3-.03.44l-.45-.41Z"/>
  <path class="cls-1" d="M402.07,118.94c.13.13.25.26.38.39-.16.14-.31.29-.47.43-.1-.1-.14-.21-.11-.32.03-.11.06-.16.09-.16-.04-.14,0-.25.11-.34Z"/>
  <path class="cls-1" d="M233.13,288.18c0,.16.01.32.02.49-.15.14-.31.28-.46.42-.13-.09-.18-.18-.15-.28.03-.11.07-.16.11-.16.05-.28.23-.41.48-.46Z"/>
  <path class="cls-1" d="M72.04,115.9c.16-.12.32-.25.48-.37.1.1.31.25.29.28-.2.39-.49.19-.77.09Z"/>
  <path class="cls-1" d="M401.97,119.28c0,.16.01.32.02.48-.15.18-.31.35-.46.53,0,0,0-.21,0-.21,0-.11-.02-.21-.03-.32.04-.28.21-.43.48-.48Z"/>
  <path class="cls-1" d="M379.5,283.9c.12-.13.25-.25.37-.38.12.07.16.18.12.31.11.11.14.22.09.32-.05.09-.09.14-.14.14-.15-.13-.3-.26-.45-.39Z"/>
  <path class="cls-1" d="M295,270.1c.13-.16.26-.32.4-.48.1.11.15.24.15.39-.14.16-.27.32-.41.48-.09-.11-.14-.24-.14-.38Z"/>
  <path class="cls-1" d="M43.75,453.71c.17-.14.33-.28.5-.42.15,0,.28.03.4.11,0,.17-.01.33-.02.5-.3-.06-.59-.13-.89-.19Z"/>
  <path class="cls-1" d="M376.91,277.25c-.14,0-.28.01-.42.03-.27-.02-.44-.16-.52-.42.1-.05.17-.13.22-.23.35.08.61.26.72.62Z"/>
  <path class="cls-1" d="M235.61,453.37c.13.12.26.25.39.37-.07.12-.18.16-.31.12-.16.16-.31.14-.45-.04.12-.15.25-.31.37-.46Z"/>
  <path class="cls-1" d="M380.94,453.73c.16-.14.32-.28.47-.41.16,0,.3.04.44.12,0,.14,0,.28,0,.43-.3-.05-.6-.09-.9-.14Z"/>
  <path class="cls-1" d="M127.19,270.49c-.13.16-.27.32-.4.48-.08-.12-.12-.26-.13-.41.15-.16.29-.32.44-.47.08.12.11.26.09.4Z"/>
  <path class="cls-1" d="M209.23,278.63c-.15.16-.3.33-.44.49-.1-.29-.2-.58-.3-.87.2,0,.4-.01.6-.02.1.12.14.25.14.41Z"/>
  <path class="cls-1" d="M64.89,456.26c.13.13.25.27.38.4-.16.14-.32.28-.48.42-.1-.1-.14-.21-.11-.32.03-.11.06-.17.09-.17-.03-.14,0-.25.11-.34Z"/>
  <path class="cls-1" d="M64.77,456.6c0,.16.01.32.02.49-.15.17-.31.34-.46.51,0,0,0-.2,0-.2,0-.11-.02-.21-.02-.32.04-.28.21-.43.48-.48Z"/>
  <path class="cls-1" d="M441.3,94.74c0,.2,0,.39.01.59-.15.17-.31.34-.46.5.06-.09.05-.17,0-.26-.01-.11-.03-.21-.04-.32.06-.28.25-.41.49-.51Z"/>
  <path class="cls-1" d="M397.17,458.19c-.16.16-.33.31-.49.47-.15,0-.28-.05-.4-.15.15-.13.31-.26.46-.39.15-.01.29.01.42.07Z"/>
  <path class="cls-1" d="M399.58,458.12c.16.15.32.3.47.44-.12.07-.25.11-.39.11-.16-.16-.33-.32-.49-.47.13-.05.27-.08.41-.08Z"/>
  <path class="cls-1" d="M278.85,94.81c.36.05.58.26.7.59-.13.14-.27.16-.42.03-.28,0-.44-.14-.48-.42.06-.07.13-.14.19-.2Z"/>
  <path class="cls-1" d="M59.07,121.21c0-.2.02-.4.03-.6.29.11.58.21.86.32-.17.14-.33.29-.5.43-.15,0-.29-.04-.4-.15Z"/>
  <path class="cls-1" d="M436.96,414.54c.21-.02.42-.04.63-.06.16.1.22.28.08.36-.33.19-.56,0-.71-.3Z"/>
  <path class="cls-1" d="M276.84,262.81c.16-.16.33-.32.49-.47.15,0,.28.05.4.15-.15.13-.31.25-.46.38-.15.01-.29,0-.42-.06Z"/>
  <path class="cls-1" d="M442.87,262.9c-.27-.03-.53-.06-.8-.1.29-.39.7-.5,1.16-.53,0,.18.01.37.02.55-.12.07-.24.1-.38.08Z"/>
  <path class="cls-1" d="M379.95,284.29c0-.15.02-.31.05-.46.14.09.28.18.41.27,0,.17-.02.34-.03.52-.14-.11-.29-.22-.43-.33Z"/>
  <path class="cls-1" d="M43.14,284.1c.02.18.04.36.06.54-.14-.09-.28-.19-.41-.28.12-.09.23-.18.35-.27Z"/>
  <path class="cls-1" d="M440.89,432.8c0-.1-.02-.2-.02-.3.21-.17.33-.05.43.14-.11.12-.24.17-.4.16Z"/>
  <path class="cls-1" d="M210.89,452.41c.19.04.38.07.57.11.03.19.07.38.1.57-.22-.22-.45-.45-.67-.68Z"/>
  <path class="cls-1" d="M447.54,263.57c0,.11,0,.23,0,.34-.17,0-.3-.05-.41-.18.09-.17.2-.29.41-.16Z"/>
  <path class="cls-1" d="M463.13,268.58c-.19-.03-.38-.07-.56-.1-.03-.18-.06-.37-.1-.55.22.22.44.43.66.65Z"/>
  <path class="cls-1" d="M129.09,275.66c0-.14.01-.29.03-.43.16,0,.3.04.42.14,0,.22,0,.44,0,.66-.15-.12-.31-.25-.46-.37Z"/>
  <path class="cls-1" d="M236.01,115.85c-.02.16-.04.32-.06.48-.16.02-.28-.05-.34-.21.13-.09.27-.18.4-.27Z"/>
  <path class="cls-1" d="M400.09,289.74c0-.14,0-.29,0-.43.15-.09.29-.17.44-.26,0,.19,0,.38.01.57-.15.04-.3.08-.45.12Z"/>
  <path class="cls-1" d="M294.08,436.71c0,.15-.02.31-.05.46-.14-.09-.28-.18-.42-.27,0-.17.02-.34.03-.51.14.11.29.21.43.32Z"/>
  <path class="cls-1" d="M232.64,288.64c.02.15.03.29.04.44-.15.08-.3.16-.45.24,0-.15,0-.3-.01-.45.14-.08.28-.15.43-.23Z"/>
  <path class="cls-1" d="M235.25,453.83c.15,0,.3.02.44.04,0,.17-.07.31-.2.42-.2,0-.4,0-.59,0,.12-.15.24-.3.35-.44Z"/>
  <path class="cls-1" d="M44.12,116.58c.18-.03.36-.06.55-.09.03.12.04.25.05.37-.27.05-.46-.07-.6-.28Z"/>
  <path class="cls-1" d="M464.36,102.11c-.15,0-.3,0-.45,0-.1-.13-.16-.27-.19-.43.18-.01.36-.02.54-.03.03.16.07.31.1.47Z"/>
  <path class="cls-1" d="M58.1,289.09c0-.15.02-.3.03-.45.14.08.29.16.43.23,0,.16-.02.31-.02.47-.15-.09-.29-.17-.44-.26Z"/>
  <path class="cls-1" d="M40.35,278.2h-.21s-.21,0-.21,0c-.1-.15-.2-.3-.3-.45.2,0,.4,0,.61,0,.04.15.07.3.11.45Z"/>
  <path class="cls-1" d="M269.12,98.99c0,.21,0,.43,0,.64,0,0-.21.11-.21.11,0,0-.24,0-.24,0,0-.14,0-.29,0-.43.15-.1.3-.21.45-.31Z"/>
  <path class="cls-1" d="M440.81,95.25c.02.11.03.22.04.32-.21.2-.33.06-.43-.12.1-.13.23-.19.39-.2Z"/>
  <path class="cls-1" d="M42.67,451.89c-.13-.16-.26-.33-.39-.49.13.16.26.33.39.49Z"/>
  <path class="cls-1" d="M212.05,115.58c0,.22,0,.43,0,.65-.19-.18-.38-.37-.57-.55.07-.07.14-.15.21-.22.14-.03.26.01.36.12Z"/>
  <path class="cls-1" d="M297.44,444.09c0-.15.01-.29.03-.44.28.06.48.21.56.49-.09.05-.16.12-.21.22-.13-.09-.26-.18-.39-.26Z"/>
  <path class="cls-1" d="M279.13,95.43c.14-.02.28-.03.42-.03.09.12.18.25.26.37-.07.06-.14.12-.21.19-.28-.07-.43-.26-.48-.54Z"/>
  <path class="cls-1" d="M211.13,115.51c.13-.14.27-.27.4-.41.12.09.17.21.15.36-.07.07-.14.14-.21.22-.15,0-.26-.05-.35-.17Z"/>
  <path class="cls-1" d="M64.29,457.08c.01.11.02.22.02.32-.22.14-.34.03-.43-.16.11-.11.25-.17.41-.16Z"/>
  <path class="cls-1" d="M226.49,457.55c-.01-.15-.02-.31,0-.46.16,0,.3.04.41.16.13.09.17.17.13.26-.04.09-.08.14-.13.14h0c-.14.16-.28.16-.43,0v-.09Z"/>
  <path class="cls-1" d="M226.9,457.64c-.01-.13-.01-.27,0-.4.19.13.38.26.57.39-.19,0-.37,0-.56,0Z"/>
  <path class="cls-1" d="M226.49,457.63c.14-.01.28-.01.43,0,.01.15.02.31.03.46-.24-.06-.4-.21-.45-.46Z"/>
  <path class="cls-1" d="M57.71,288.25c-.14,0-.29.02-.43.02-.06-.14-.11-.28-.17-.43,0,0,.07-.07.07-.07.34-.02.47.19.53.47Z"/>
  <path class="cls-1" d="M110.51,432.61c-.04-.21-.08-.42-.12-.64.23.23.46.47.69.71-.19-.02-.38-.05-.57-.07Z"/>
  <path class="cls-1" d="M404.22,284.93c.09,0,.19.02.28.03,0,.16-.04.29-.16.41-.08-.09-.16-.18-.22-.28-.01-.02.06-.1.1-.15Z"/>
  <path class="cls-1" d="M228.22,458.69c.21.09.41.19.62.28-.21-.09-.41-.19-.62-.28Z"/>
  <path class="cls-1" d="M207.51,108.38c.19.03.38.06.57.08.04.21.08.41.12.62-.23-.23-.46-.47-.69-.71Z"/>
  <path class="cls-1" d="M278.27,94.82c0-.16.01-.32.01-.47.28.05.48.18.56.46-.07.06-.13.13-.19.2-.17.01-.29-.05-.39-.19Z"/>
  <path class="cls-1" d="M104.11,432.05c0,.19.01.38.02.57-.07.14-.19.2-.35.18-.06-.06-.13-.12-.19-.19.06-.3.27-.45.52-.57Z"/>
  <path class="cls-1" d="M227.39,120.42c0,.18,0,.37,0,.55-.14-.07-.29-.15-.43-.22,0-.21,0-.42,0-.63.14.1.29.2.43.3Z"/>
  <path class="cls-1" d="M231.25,121.31c0-.12.01-.24.02-.36.14.09.28.17.42.26,0,0-.21.1-.21.1h-.23Z"/>
  <path class="cls-1" d="M269.85,436.05c-.11,0-.22,0-.32-.02,0-.16.05-.3.18-.4.07.09.16.17.21.26.02.03-.04.1-.07.16Z"/>
  <path class="cls-1" d="M46.53,116.87c0-.12.02-.25.04-.37.2.04.4.07.61.11-.17.19-.38.3-.65.26Z"/>
  <path class="cls-1" d="M67.16,284.79c.02.12.03.24.03.36-.23.08-.46.16-.69.24.22-.2.44-.4.66-.6Z"/>
  <path class="cls-1" d="M401.49,119.76c.01.11.02.22.03.32-.22.15-.34.03-.43-.16.11-.11.25-.17.41-.16Z"/>
  <path class="cls-1" d="M270.53,98.25c-.22,0-.43,0-.65,0,.1-.14.21-.29.31-.43.2,0,.41,0,.61,0-.09.14-.19.29-.28.43Z"/>
  <path class="cls-1" d="M465.59,106.45c.21.05.42.1.63.15.02.14.03.28.03.43-.22-.19-.44-.38-.66-.58Z"/>
  <path class="cls-1" d="M103.63,433.17c-.14-.13-.27-.26-.41-.4.09-.13.21-.18.36-.16.06.07.12.13.19.18.02.15-.03.27-.14.37Z"/>
  <path class="cls-1" d="M401.89,457.01l-.17-.02s-.02-.17-.02-.17c.11.02.18.08.19.19Z"/>
  <path class="cls-1" d="M125.38,268.48c0-.15.07-.22.22-.22,0,.15-.07.22-.22.22Z"/>
  <path class="cls-1" d="M272.36,264.18c-.13,0-.2-.08-.21-.21,0,0,.17.04.17.04l.04.17Z"/>
</svg>