<?xml version="1.0" encoding="UTF-8"?>
<svg id="Camada_7" data-name="Camada 7" xmlns="http://www.w3.org/2000/svg" viewBox="0 0 537.14 518">
  <defs>
    <style>
      .cls-1 {
        fill: #0992c7;
        stroke-width: 0px;
      }
    </style>
  </defs>
  <path class="cls-1" d="M125.07,257.96l.16,1.36c13.23-1.57,15.03,5.42,16.61,11.61.4,1.57.78,3.07,1.34,4.27,2.67,5.72,6.26,8.95,10.65,9.62.57.1,1.16.14,1.74.14,4.5,0,8.86-2.49,11.94-4.82,4.7,3.94,10.47,6.63,16.83,7.56,2.26,3.79,6.69,9.67,12.73,10.71.62.11,1.23.16,1.85.16,3.78,0,7.57-1.99,11.29-5.93.92-.97,1.74-2.26,2.63-3.63,3.45-5.37,7.35-11.46,19.43-5.78l.58-1.25c-13.14-6.19-17.77,1.03-21.15,6.28-.85,1.31-1.64,2.55-2.48,3.42-4,4.23-8.01,6.02-11.9,5.37-5.01-.86-8.94-5.6-11.21-9.15,1.07.11,2.16.16,3.26.16,14.09,0,25.53-8.72,32.31-20.62,2.27-3.97,3.85-8.2,5.02-12.57.26-.96.49-1.92.7-2.89,1.67-.79,3.18-1.64,4.35-2.37,13.86-8.54,23.9-23.01,27.08-38.99-7,8.71-17.04,15.31-27.81,17.83.56-3.92,1.22-7.82,2.16-11.62,4.39-17.76,15.21-33.84,29.98-44.63,8.1-5.91,18.26-10.38,28.02-8.08,7.23,1.68,13.1,6.79,18.65,11.73-3.93-11.56-6.69-23.49-8.26-35.6-22.97,15.29-51.7,19.78-75.15,34.32-5.65,3.49-10.95,7.54-16.22,11.6-12.35,9.45-24.77,18.96-35.68,30-8.24-8.71-12.98-21.07-13.29-33.21-7.15,14.62-7.91,32.24-2.05,47.42.36.93.82,2.03,1.36,3.18-3.38,6.09-5.27,12.69-5.27,20.41,0,9.99,4.31,19,11.17,25.2-3.27,2.42-7.91,4.97-12.4,4.27-3.92-.59-7.15-3.57-9.61-8.84-.51-1.1-.88-2.52-1.26-4.03-1.55-6.07-3.67-14.36-18.1-12.64Z"/>
  <path class="cls-1" d="M385.44,247.06c-.4-1.57-.78-3.07-1.34-4.27-2.67-5.71-6.26-8.95-10.65-9.62-5.11-.78-10.2,2.05-13.68,4.7-4.7-3.94-10.47-6.63-16.81-7.56-2.27-3.79-6.69-9.68-12.75-10.72-4.38-.75-8.8,1.19-13.14,5.78-.92.96-1.74,2.26-2.63,3.63-3.45,5.37-7.35,11.45-19.41,5.78l-.59,1.23c3.6,1.7,6.57,2.38,9.04,2.38,6.56,0,9.67-4.83,12.13-8.65.84-1.31,1.63-2.56,2.46-3.44,4-4.22,8.01-6.04,11.91-5.35,5.01.85,8.93,5.6,11.21,9.15-1.07-.11-2.16-.16-3.26-.16-14.09,0-25.53,8.72-32.31,20.62-2.27,3.97-3.85,8.2-5.02,12.57-.26.96-.49,1.92-.7,2.89-1.67.79-3.18,1.64-4.35,2.37-13.85,8.54-23.9,23.01-27.08,38.99,7-8.71,17.04-15.31,27.81-17.83-.56,3.92-1.22,7.82-2.16,11.62-4.39,17.76-15.21,33.84-29.98,44.63-8.1,5.91-18.26,10.38-28.02,8.08-7.23-1.68-13.1-6.79-18.65-11.73,3.93,11.55,6.69,23.49,8.26,35.6,22.97-15.29,51.7-19.78,75.15-34.32,5.65-3.49,10.95-7.54,16.22-11.6,12.35-9.45,24.77-18.96,35.68-30,8.24,8.71,12.98,21.07,13.29,33.21,7.15-14.62,7.91-32.24,2.05-47.42-.36-.93-.82-2.03-1.36-3.18,3.38-6.09,5.27-12.69,5.27-20.41,0-10.01-4.31-19-11.17-25.2,3.29-2.44,7.91-4.96,12.4-4.29,3.9.6,7.13,3.57,9.6,8.86.51,1.08.88,2.51,1.26,4.03,1.41,5.5,3.29,12.87,14.46,12.87,1.12,0,2.33-.08,3.64-.23l-.16-1.36c-13.24,1.56-15.03-5.44-16.61-11.62Z"/>
  <path class="cls-1" d="M45.83,22.87h-18.32v18.32c10.12,0,18.32-8.2,18.32-18.32Z"/>
  <path class="cls-1" d="M499.77,41.19v-18.32h-18.32c0,10.12,8.2,18.32,18.32,18.32Z"/>
  <path class="cls-1" d="M499.77,476.81c-10.12,0-18.32,8.2-18.32,18.32h18.32v-18.32Z"/>
  <path class="cls-1" d="M27.52,476.81v18.32h18.32c0-10.12-8.2-18.32-18.32-18.32Z"/>
  <path class="cls-1" d="M421.9,117.52c-6.07,0-11,4.92-11,11s4.92,11,11,11,11-4.92,11-11-4.92-11-11-11Z"/>
  <circle class="cls-1" cx="117.67" cy="407.16" r="19.98" transform="translate(-303.53 360.06) rotate(-67.5)"/>
  <circle class="cls-1" cx="156.31" cy="92.93" r="12.59" transform="translate(-12.87 26.24) rotate(-9.22)"/>
  <circle class="cls-1" cx="390.96" cy="407.16" r="16.1" transform="translate(-83.09 100.72) rotate(-13.28)"/>
</svg>