<?xml version="1.0" encoding="UTF-8"?>
<svg id="Camada_13" data-name="Camada 13" xmlns="http://www.w3.org/2000/svg" viewBox="0 0 537.14 518">
  <defs>
    <style>
      .cls-1 {
        fill: #ffda00;
        stroke-width: 0px;
      }
    </style>
  </defs>
  <path class="cls-1" d="M136.9,262.46l.14,1.16c11.34-1.35,12.89,4.65,14.24,9.96.34,1.35.67,2.63,1.15,3.66,2.29,4.91,5.37,7.68,9.14,8.26.49.08,1,.12,1.49.12,3.86,0,7.6-2.14,10.24-4.13,4.03,3.38,8.98,5.68,14.43,6.48,1.94,3.25,5.74,8.29,10.92,9.18.53.09,1.06.14,1.59.14,3.24,0,6.49-1.7,9.69-5.08.79-.83,1.49-1.94,2.25-3.11,2.96-4.6,6.31-9.83,16.66-4.96l.49-1.07c-11.27-5.31-15.24.88-18.14,5.39-.73,1.13-1.41,2.18-2.13,2.94-3.43,3.63-6.87,5.17-10.2,4.6-4.3-.74-7.67-4.8-9.62-7.84.92.09,1.86.14,2.79.14,12.08,0,21.9-7.48,27.71-17.69,1.95-3.41,3.3-7.03,4.31-10.78.22-.82.42-1.64.6-2.48,1.43-.68,2.72-1.41,3.73-2.03,11.88-7.33,20.5-19.74,23.23-33.44-6,7.47-14.62,13.13-23.85,15.29.48-3.36,1.05-6.71,1.86-9.97,3.77-15.23,13.05-29.03,25.72-38.28,6.95-5.07,15.67-8.9,24.04-6.93,6.2,1.44,11.24,5.82,15.99,10.06-3.37-9.91-5.74-20.15-7.08-30.53-19.7,13.12-44.34,16.97-64.46,29.44-4.85,2.99-9.39,6.47-13.92,9.95-10.59,8.1-21.24,16.26-30.6,25.73-7.07-7.47-11.13-18.07-11.4-28.49-6.13,12.54-6.79,27.65-1.76,40.68.31.8.7,1.74,1.16,2.72-2.9,5.23-4.52,10.89-4.52,17.51,0,8.57,3.7,16.3,9.58,21.62-2.81,2.08-6.79,4.26-10.64,3.66-3.36-.5-6.13-3.06-8.24-7.59-.43-.94-.75-2.16-1.08-3.45-1.33-5.2-3.15-12.32-15.52-10.84Z"/>
  <path class="cls-1" d="M360.23,253.1c-.34-1.35-.67-2.63-1.15-3.66-2.29-4.9-5.37-7.68-9.14-8.26-4.38-.67-8.75,1.76-11.73,4.03-4.03-3.38-8.98-5.68-14.42-6.48-1.95-3.25-5.74-8.3-10.93-9.19-3.76-.65-7.55,1.02-11.27,4.96-.79.82-1.49,1.94-2.25,3.11-2.96,4.6-6.31,9.82-16.65,4.96l-.5,1.06c3.09,1.46,5.64,2.04,7.75,2.04,5.62,0,8.29-4.15,10.4-7.42.72-1.13,1.4-2.2,2.11-2.95,3.43-3.62,6.87-5.18,10.22-4.59,4.3.73,7.66,4.8,9.62,7.84-.92-.09-1.86-.14-2.79-.14-12.08,0-21.9,7.48-27.71,17.69-1.95,3.41-3.3,7.03-4.31,10.78-.22.82-.42,1.64-.6,2.48-1.43.68-2.72,1.41-3.73,2.03-11.88,7.33-20.5,19.74-23.23,33.44,6-7.47,14.62-13.13,23.85-15.29-.48,3.36-1.05,6.71-1.86,9.97-3.77,15.23-13.05,29.03-25.72,38.28-6.95,5.07-15.67,8.9-24.04,6.93-6.2-1.44-11.24-5.82-15.99-10.06,3.37,9.91,5.74,20.15,7.08,30.53,19.7-13.12,44.34-16.97,64.46-29.44,4.85-2.99,9.39-6.47,13.92-9.95,10.59-8.1,21.24-16.26,30.6-25.73,7.07,7.47,11.13,18.07,11.4,28.49,6.13-12.54,6.79-27.66,1.76-40.68-.31-.8-.7-1.74-1.16-2.72,2.9-5.23,4.52-10.89,4.52-17.51,0-8.58-3.7-16.3-9.58-21.62,2.82-2.09,6.79-4.25,10.64-3.68,3.35.52,6.12,3.06,8.23,7.6.43.93.75,2.15,1.08,3.45,1.21,4.72,2.82,11.04,12.4,11.04.96,0,2-.07,3.12-.2l-.14-1.16c-11.36,1.34-12.89-4.66-14.24-9.97Z"/>
  <path class="cls-1" d="M68.93,60.81h-15.71v15.71c8.68,0,15.71-7.03,15.71-15.71Z"/>
  <path class="cls-1" d="M458.29,76.52v-15.71h-15.71c0,8.68,7.03,15.71,15.71,15.71Z"/>
  <path class="cls-1" d="M458.29,450.17c-8.68,0-15.71,7.03-15.71,15.71h15.71v-15.71Z"/>
  <path class="cls-1" d="M53.22,450.17v15.71h15.71c0-8.68-7.03-15.71-15.71-15.71Z"/>
  <path class="cls-1" d="M391.5,141.99c-5.21,0-9.43,4.22-9.43,9.43s4.22,9.43,9.43,9.43,9.43-4.22,9.43-9.43-4.22-9.43-9.43-9.43Z"/>
  <circle class="cls-1" cx="130.55" cy="390.43" r="17.14" transform="translate(-280.12 361.63) rotate(-67.5)"/>
  <circle class="cls-1" cx="163.69" cy="120.9" r="10.79" transform="translate(-17.25 27.78) rotate(-9.22)"/>
  <circle class="cls-1" cx="364.97" cy="390.43" r="13.81" transform="translate(-79.94 94.3) rotate(-13.28)"/>
</svg>